<?xml version="1.0" standalone="no"?>
<!DOCTYPE svg PUBLIC "-//W3C//DTD SVG 1.1//EN" "http://www.w3.org/Graphics/SVG/1.1/DTD/svg11.dtd" >
<svg xmlns="http://www.w3.org/2000/svg" xmlns:xlink="http://www.w3.org/1999/xlink" version="1.1">
<metadata></metadata>
<defs>
<font id="andadabold" horiz-adv-x="1366" >
<font-face units-per-em="2048" ascent="1638" descent="-410" />
<missing-glyph horiz-adv-x="366" />
<glyph unicode="&#xa8;I" horiz-adv-x="829" d="M102 133l136 25q0 3 5 42.5t9 77.5t4 56v715q0 79 -18 227l-134 24l11 154q108 -10 204 -10q103 0 202.5 2.5t147.5 5.5l48 2l10 -166l-135 -12q-19 -98 -19 -166v-715q0 -99 19 -237l133 -13l-10 -155q-167 10 -398 10q-43 0 -94 -2.5t-81 -5.5l-29 -2zM102 1692 q0 64 35.5 103.5t98.5 39.5t98 -37.5t35 -105.5q0 -65 -34.5 -103.5t-98.5 -38.5q-63 0 -98.5 39t-35.5 103zM461 1692q0 65 34 104t97 39t98 -37.5t35 -105.5q0 -65 -34.5 -103.5t-98.5 -38.5q-63 0 -97 38.5t-34 103.5z" />
<glyph unicode="&#xa8;O" horiz-adv-x="1572" d="M55 721q0 347 199 554.5t532 207.5t532.5 -207.5t199.5 -554.5q0 -346 -199.5 -553t-532.5 -207t-532 207t-199 553zM403 1692q0 64 37 103.5t103 39.5q65 0 101 -38t36 -105q0 -65 -35.5 -103.5t-101.5 -38.5t-103 39t-37 103zM424 721q0 -286 89 -423.5t273 -137.5 q185 0 274 137.5t89 423.5q0 287 -89 425t-274 138t-273.5 -138t-88.5 -425zM891 1692q0 65 35.5 104t101.5 39q65 0 101 -38t36 -105q0 -65 -35.5 -103.5t-101.5 -38.5t-101.5 38.5t-35.5 103.5z" />
<glyph unicode="&#xb4;Y" horiz-adv-x="1458" d="M-12 1311l10 143q112 -10 188 -10q103 0 209.5 2.5t161.5 5.5l55 2l11 -149l-109 -19q15 -67 35 -106l215 -424l225 452q4 7 6 26.5t2 35.5v16l-90 25l11 143q129 -10 225 -10q76 0 151 2.5t112 5.5l38 2l10 -149l-123 -15q-92 -110 -127 -176l-313 -602v-117 q0 -107 18 -237l133 -13l-10 -155q-166 10 -397 10q-43 0 -94 -2.5t-81 -5.5l-30 -2l-10 143l135 25q0 3 5 42.5t9 77.5t4 56v176l-364 672q-13 22 -37.5 49.5t-42.5 44.5l-18 16zM489 1626l486 213l74 -172q-293 -82 -332 -94l-152 -78z" />
<glyph unicode="&#xa8;i" horiz-adv-x="688" d="M4 1341q0 65 35 104.5t98 39.5t98 -38t35 -106q0 -65 -34.5 -103t-98.5 -38q-63 0 -98 38.5t-35 102.5zM41 879l18 151q154 -18 240 -18l180 4l43 -39q-20 -271 -20 -373v-209q0 -45 4.5 -104.5t9.5 -96.5l4 -36l133 -13l-10 -155q-136 10 -367 10q-43 0 -94 -2.5 t-80 -5.5l-30 -2l-11 143l136 25q18 135 18 176v332q0 18 -5 62.5t-10 79.5l-5 36zM362 1341q0 65 34.5 104.5t97.5 39.5t98 -38t35 -106q0 -65 -34.5 -103t-98.5 -38q-63 0 -97.5 38.5t-34.5 102.5z" />
<glyph unicode="&#xa8;o" horiz-adv-x="1114" d="M51 500q0 256 130.5 393t375.5 137t375.5 -137t130.5 -393q0 -255 -131 -393t-375 -138t-375 138t-131 393zM176 1341q0 65 36.5 104.5t102.5 39.5q65 0 101.5 -38.5t36.5 -105.5q0 -64 -36 -102.5t-102 -38.5t-102.5 38.5t-36.5 102.5zM377 500q0 -189 42.5 -273 t137.5 -84t137.5 84t42.5 273t-42.5 272.5t-137.5 83.5t-137.5 -83.5t-42.5 -272.5zM664 1341q0 65 35.5 104.5t101.5 39.5q64 0 100.5 -38t36.5 -106q0 -65 -35.5 -103t-101.5 -38t-101.5 38t-35.5 103z" />
<glyph unicode="&#xb4;y" horiz-adv-x="1169" d="M8 889l12 141q152 -18 285 -18q40 0 98 2.5t96 5.5l38 2l8 -145l-86 -11q7 -76 28 -137l129 -405l125 409q22 68 25 133l-90 11l12 145q111 -10 244 -10q40 0 96 2.5t92 5.5l35 2l8 -145l-100 -11q-16 -28 -45.5 -94.5t-40.5 -99.5l-447 -1153l-405 26l22 162l113 -4 q50 0 90 12q41 47 64 115l63 170l-254 666q-56 146 -86 200zM367 1276l424 270l96 -155q-250 -116 -287 -134l-137 -100z" />
<glyph unicode="&#xfb01;" horiz-adv-x="1415" d="M72 133l114 25q19 135 19 176v524h-117l-6 129q16 5 59.5 18t63.5 21v162q0 171 101.5 280t268.5 109q63 0 138.5 -7.5t119.5 -14.5l44 -7l-31 -342l-152 6v93q0 18 -3.5 48.5t-4.5 41.5q-36 16 -76 16q-72 0 -95 -55.5t-23 -188.5v-155h552l181 4l43 -39 q-21 -271 -21 -373v-209q0 -45 4.5 -104.5t9.5 -96.5l5 -36l133 -13l-10 -155q-136 10 -367 10q-43 0 -94 -2.5t-81 -5.5l-30 -2l-10 143l135 25q19 135 19 176v332q0 18 -5.5 62.5t-10.5 79.5l-5 36q-86 12 -219 14h-229v-463q0 -45 4.5 -104.5t9.5 -96.5l4 -36l174 -13 l-10 -155q-156 10 -387 10q-43 0 -94 -2.5t-81 -5.5l-30 -2zM924 1341q0 74 42.5 119t118.5 45q75 0 118.5 -44t43.5 -120q0 -73 -42.5 -117t-119.5 -44t-119 44t-42 117z" />
<glyph unicode="&#xfb02;" horiz-adv-x="1374" d="M72 133l114 25q19 135 19 176v524h-117l-6 129q16 5 59.5 18t63.5 21v162q0 171 101.5 280t268.5 109q107 0 231 -14.5t232 -14.5l181 4l43 -39q-21 -270 -21 -372v-746q0 -45 4.5 -104.5t9.5 -96.5l5 -36l133 -13l-11 -155q-135 10 -366 10q-43 0 -94 -2.5t-81 -5.5 l-30 -2l-10 143l135 25q18 135 18 176v868q0 18 -5 62.5t-10 79.5l-5 36q-157 47 -268 47q-45 0 -77 -13t-51 -33.5t-29.5 -56t-13.5 -71t-3 -86.5v-155h247l-18 -154h-229v-463q0 -45 4.5 -104.5t9.5 -96.5l4 -36l174 -13l-10 -155q-156 10 -387 10q-43 0 -94 -2.5 t-81 -5.5l-30 -2z" />
<glyph horiz-adv-x="0" />
<glyph horiz-adv-x="682" />
<glyph unicode=" "  horiz-adv-x="366" />
<glyph unicode="&#x09;" horiz-adv-x="366" />
<glyph unicode="&#xa0;" horiz-adv-x="366" />
<glyph unicode="!" horiz-adv-x="489" d="M113 131q0 74 39.5 119t111.5 45q71 0 111.5 -44t40.5 -120q0 -74 -40 -118t-112 -44t-111.5 44t-39.5 118zM131 1458l246 19l59 -58q-51 -447 -51 -768l6 -157l-35 -33q-12 2 -84 6t-125 4q3 74 3 135z" />
<glyph unicode="&#x22;" horiz-adv-x="735" d="M82 1548h244l-27 -499l-180 10l2 190zM410 1548h243l-26 -499l-181 10l3 190z" />
<glyph unicode="#" horiz-adv-x="1167" d="M66 287v176l245 2l33 207l-238 -2v186h267l51 315l164 -20l-47 -295h186l49 315l164 -20l-47 -295h227v-176l-256 -2l-33 -207l248 2v-186h-276l-49 -318l-164 21l47 297h-186l-50 -318l-163 21l47 297h-219zM479 467l187 2l32 207l-186 -2z" />
<glyph unicode="$" horiz-adv-x="1110" d="M90 70l31 323l145 -10q0 -70 2 -90q-3 -11 13 -80q10 -8 31 -18t78.5 -22.5t125.5 -12.5q78 0 131 36t53 107q0 43 -21 79.5t-56 64t-80.5 53t-96 51.5t-101 55t-96 67.5t-80.5 84t-56 110t-21 140.5q0 167 119.5 260t312.5 98l8 188l132 -6l-9 -188q124 -12 312 -57 l-27 -312l-149 8v111q0 2 -1 5.5t-2 8.5t-2 9q-61 55 -186 55q-80 0 -130 -38t-50 -103q0 -39 21 -72t56 -59t81 -51t96.5 -50.5t101 -53.5t96.5 -66t81 -82.5t56 -106.5t21 -135q0 -175 -120 -279.5t-310 -120.5l-6 -159l-133 6l6 155q-103 6 -197 30.5t-137 45.5z" />
<glyph unicode="%" horiz-adv-x="1839" d="M37 1057q0 83 20 153.5t61.5 127t111.5 88.5t163 32t163.5 -32t111.5 -88.5t61.5 -127t20.5 -153.5t-20.5 -154t-61.5 -128t-111.5 -89.5t-163.5 -32.5t-163 32.5t-111.5 89.5t-61.5 128t-20 154zM266 1057q0 -266 127 -266q129 0 129 266t-129 266q-127 0 -127 -266z M342 -8l870 1483l144 -93l-869 -1482zM1042 397q0 86 21 159.5t64.5 132t117 91.5t170.5 33t170.5 -33t117 -91.5t64.5 -132t21 -159.5t-21 -158.5t-64.5 -130.5t-117 -91t-170.5 -33t-170.5 33t-117 91t-64.5 130.5t-21 158.5zM1280 397q0 -272 135 -272t135 272 q0 275 -135 275t-135 -275z" />
<glyph unicode="&#x26;" horiz-adv-x="1552" d="M82 356q0 124 62 217t184 166q-119 154 -119 297q0 103 62.5 177.5t159 108.5t212.5 34q162 0 344 -64l-24 -321l-134 8v88q0 4 -7 24t-14 38l-7 18q-81 18 -125 18q-123 0 -123 -121q0 -54 24.5 -107.5t87 -125.5t144 -149t221.5 -199q12 43 12 94q0 3 -8 119l-100 12 l10 146q133 -11 246 -11q50 0 100.5 2.5t75.5 5.5l25 3l10 -146l-133 -12l-13 -129q-12 -127 -61 -228l53 -45q31 -27 150 -120l104 -9l-10 -155q-148 10 -379 10h-33q-3 3 -84 90q-167 -110 -415 -110q-108 0 -197 22t-157 66t-106 117.5t-38 170.5zM416 389 q0 -66 35.5 -111.5t87 -64t112.5 -18.5q103 0 189 45q-38 34 -114.5 101.5t-134 120t-106.5 99.5q-69 -83 -69 -172z" />
<glyph unicode="'" horiz-adv-x="407" d="M82 1548h244l-27 -499l-180 10l2 190z" />
<glyph unicode="(" horiz-adv-x="651" d="M82 649q0 558 397 926l111 -90q-117 -166 -131 -207q-54 -146 -85.5 -295t-31.5 -334t31.5 -334t85.5 -295q6 -18 39 -69.5t62 -94.5l30 -42l-111 -90q-397 368 -397 925z" />
<glyph unicode=")" horiz-adv-x="651" d="M61 -186q118 165 132 206q116 312 116 629t-116 629q-6 18 -39 70t-63 94l-30 43l111 90q397 -368 397 -926q0 -557 -397 -925z" />
<glyph unicode="*" horiz-adv-x="837" d="M74 1049l162 116q-39 34 -62 49l-94 56l61 137l185 -84q2 15 4.5 34t4 31t1.5 15v108l149 17l21 -201q74 29 76 31l92 53l88 -121l-164 -119q36 -29 66 -49l92 -53l-62 -137l-184 82q-10 -65 -10 -80v-107l-150 -16l-20 201q-64 -24 -74 -31l-94 -53z" />
<glyph unicode="+" horiz-adv-x="1189" d="M68 416v215h419v416h205l4 -416h426v-205l-424 -4l4 -422h-215v420z" />
<glyph unicode="," horiz-adv-x="489" d="M55 -213q161 56 176 193q-67 4 -103 51t-36 114q0 78 39.5 124t114.5 46q155 0 155 -209q0 -62 -20 -123t-58 -115t-101 -93.5t-142 -53.5z" />
<glyph unicode="-" horiz-adv-x="577" d="M61 616h455l-10 -194h-440z" />
<glyph unicode="." horiz-adv-x="507" d="M92 141q0 78 43.5 126t118.5 48t118.5 -46.5t43.5 -127.5q0 -78 -43.5 -125t-118.5 -47t-118.5 47t-43.5 125z" />
<glyph unicode="/" horiz-adv-x="811" d="M14 -72l627 1655l190 -61l-624 -1655z" />
<glyph unicode="0" horiz-adv-x="1171" d="M53 668q0 114 18.5 213.5t59.5 187.5t102 151t151 99.5t202 36.5t202 -36.5t151 -99.5t102 -151t59 -187.5t18 -213.5t-18 -213.5t-59 -187.5t-102 -151t-151 -99.5t-202 -36.5t-202 36.5t-151 99.5t-102 151t-59.5 187.5t-18.5 213.5zM389 668q0 -514 197 -514 q196 0 196 514t-196 514q-197 0 -197 -514z" />
<glyph unicode="1" horiz-adv-x="872" d="M74 1038q247 189 288 222q10 8 35.5 37t45.5 54l20 25l211 -24q-17 -378 -17 -480v-477q0 -46 5 -104.5t10 -95.5t6 -37l160 -13l-13 -155q-158 10 -391 10q-42 0 -108 -2.5t-111 -5.5l-45 -2l-10 143l182 25q18 135 18 176v657l-210 -80z" />
<glyph unicode="2" horiz-adv-x="1120" d="M39 203q245 222 370 354.5t178.5 229t53.5 190.5q0 86 -49.5 132t-134.5 46q-90 0 -178 -49q-17 -55 -17 -78v-88l-162 -10l-14 354q201 72 414 72q226 0 348.5 -92t122.5 -260q0 -109 -47.5 -208.5t-169.5 -231t-348 -322.5h245q27 0 70.5 4.5t72.5 9t35 6.5l33 105 l15 75l159 -12l-16 -395l-62 -41q-184 6 -223 6h-667z" />
<glyph unicode="3" horiz-adv-x="1005" d="M39 -59q249 28 400 135t151 258q0 219 -209 219l-127 -8l-29 149q162 28 247 109t85 207q0 81 -42 123.5t-120 42.5q-72 0 -149 -25q-17 -72 -17 -80v-108l-161 -11l-29 344q180 60 369 60q226 0 343 -91t117 -268q0 -97 -59 -179t-168 -138q122 -26 203.5 -119 t81.5 -205q0 -143 -109 -267.5t-302 -205t-431 -98.5z" />
<glyph unicode="4" horiz-adv-x="1153" d="M20 561l725 952l205 -172q-212 -209 -243 -256l-390 -526h285v199l287 98v-278l192 10v-215h-192v-45q0 -24 2 -50t4.5 -46.5t5 -37t4.5 -26.5l2 -10l178 -13l-10 -155q-213 10 -438 10q-41 0 -106 -2.5t-109 -5.5l-45 -2l-10 143l217 25l2 14q2 15 4.5 36.5t5 44.5 t4.5 44.5t2 32.5v43h-430z" />
<glyph unicode="5" horiz-adv-x="995" d="M86 655l51 643l39 37h180l498 21l12 -260q-262 -29 -323 -29h-193l-18 -291q55 8 127 8q223 0 343 -106.5t120 -294.5q0 -476 -789 -598l-45 152q273 62 393.5 155t120.5 244q0 237 -237 237q-88 0 -183 -28z" />
<glyph unicode="6" horiz-adv-x="1130" d="M61 504q0 131 36 262t111.5 254.5t182.5 225.5t259.5 177t332.5 107l33 -135q-135 -44 -243.5 -118.5t-179.5 -163t-118 -193.5t-67.5 -208t-20.5 -208q0 -62 8.5 -117t28.5 -107t59 -83t92 -31q60 0 99 40t53 95.5t14 124.5q0 68 -13 122.5t-50.5 95t-95.5 40.5l-70 -6 l-12 147q65 21 162 21q191 0 299 -113.5t108 -306.5q0 -132 -66.5 -235.5t-178 -158.5t-246.5 -55q-237 0 -377 144t-140 383z" />
<glyph unicode="7" horiz-adv-x="1046" d="M72 883l22 430l37 41q199 -19 246 -19h651l33 -141l-647 -1409l-256 88l460 903q10 21 40 116t51 173h-314q-24 0 -114 -8q-5 -17 -16.5 -47.5t-14.5 -38.5l-17 -94z" />
<glyph unicode="8" horiz-adv-x="1112" d="M61 336q0 200 261 364q-101 68 -158.5 155.5t-57.5 213.5q0 78 39 142t103.5 104t143.5 61t163 21q113 0 212.5 -36.5t166.5 -114.5t67 -183q0 -183 -217 -348q46 -28 81.5 -54t71 -63t58.5 -76.5t37.5 -91.5t14.5 -111q0 -84 -43.5 -150.5t-115.5 -106.5t-158 -61 t-177 -21q-96 0 -182 21.5t-156.5 63t-112 111.5t-41.5 160zM362 338q0 -88 52 -139.5t141 -51.5q88 0 138 48t50 137q0 44 -17 81.5t-53 69.5t-70.5 54.5t-90.5 52.5q-150 -113 -150 -252zM401 1067q0 -80 51 -137t146 -111q109 120 109 242q0 74 -40 121t-112 47 q-68 0 -111 -46.5t-43 -115.5z" />
<glyph unicode="9" horiz-adv-x="1130" d="M61 907q0 187 144 318t348 131q163 0 281 -68t176.5 -186t58.5 -273q0 -109 -25 -220t-73 -218.5t-125 -205t-175 -177.5t-229.5 -138t-281.5 -85l-45 152q147 39 260.5 113t181.5 161.5t111 197t59 210t16 210.5q0 67 -11 126.5t-33 107.5t-59 76t-85 28q-60 0 -99 -40 t-53 -95.5t-14 -124.5q0 -110 44 -184t116 -74l69 6l13 -147q-65 -21 -142 -21q-200 0 -314 110.5t-114 309.5z" />
<glyph unicode=":" horiz-adv-x="487" d="M92 131q0 74 40 119t112 45q70 0 110.5 -43.5t40.5 -120.5q0 -74 -39.5 -118t-111.5 -44t-112 44t-40 118zM92 834q0 74 40 118.5t112 44.5q71 0 111 -43.5t40 -119.5q0 -74 -39.5 -118t-111.5 -44t-112 44t-40 118z" />
<glyph unicode=";" horiz-adv-x="489" d="M55 -213q161 56 176 193q-67 4 -103 51t-36 114q0 78 39.5 124t114.5 46q155 0 155 -209q0 -62 -20 -123t-58 -115t-101 -93.5t-142 -53.5zM92 813q0 74 40 119t112 45q70 0 110.5 -43.5t40.5 -120.5q0 -74 -39.5 -118t-111.5 -44t-112 44t-40 118z" />
<glyph unicode="&#x3c;" horiz-adv-x="985" d="M82 510l606 541l133 -154l-440 -387l440 -387l-133 -154z" />
<glyph unicode="=" horiz-adv-x="1198" d="M133 201v217h932v-207zM133 590v217h932v-207z" />
<glyph unicode="&#x3e;" horiz-adv-x="985" d="M164 121l440 387l-440 387l133 154l606 -541l-606 -541z" />
<glyph unicode="?" horiz-adv-x="864" d="M61 1409q178 80 330 80q222 0 347.5 -111t125.5 -313q0 -185 -117.5 -293.5t-312.5 -114.5l6 -163l-34 -33q-72 8 -205 8l-6 6v266l63 70q52 -6 121 -6q97 0 154 75t57 187q0 121 -55 195.5t-164 74.5q-88 0 -138 -32q-12 -43 -12 -115l4 -74l-139 -10zM158 131 q0 74 39.5 119t111.5 45q71 0 111.5 -44t40.5 -120q0 -74 -40 -118t-112 -44t-111.5 44t-39.5 118z" />
<glyph unicode="@" horiz-adv-x="1953" d="M61 475q0 137 30.5 262t101.5 241t175.5 201t263.5 136t355 51q416 0 660.5 -206.5t244.5 -571.5q0 -77 -24 -156t-73 -152.5t-117.5 -133t-164 -99t-204.5 -47.5h-150l-16 147q-50 -90 -120 -128.5t-163 -38.5q-139 0 -220 77t-81 213q0 236 270 283l291 47v62 q0 95 -30.5 148.5t-112.5 53.5q-69 0 -162 -45l-8 -80l2 -100l-154 -6l-30 342q202 55 364 55q203 0 310.5 -98.5t107.5 -269.5v-267q0 -45 4.5 -109.5t8.5 -106.5l5 -42l-2 -2q61 15 108 63t73.5 114t39.5 136t13 140q0 286 -180 461.5t-490 175.5q-120 0 -219.5 -28 t-168 -74t-121.5 -110t-84.5 -130.5t-51 -142.5t-26.5 -139t-7 -126q0 -131 23.5 -242t76 -205t131.5 -159t195 -101.5t262 -35.5q34 0 135.5 21.5t185.5 42.5l85 22l33 -78q-37 -20 -94 -49t-176 -78t-169 -49q-213 0 -379.5 55t-269 143t-169.5 210t-92.5 244.5 t-25.5 258.5zM862 311q0 -63 27 -92t84 -29q138 0 147 164v113l-151 -29q-57 -11 -82 -40t-25 -87z" />
<glyph unicode="A" d="M2 139l92 15l86 176l387 1114l230 22l409 -1204l47 -110l115 -19l-10 -143q-100 10 -172 10q-108 0 -212.5 -2.5t-155.5 -5.5l-50 -2l-10 149l121 19l-11 106l-28 103h-387l-35 -131l-12 -78l118 -25l-10 -143q-121 10 -217 10q-77 0 -148.5 -2.5t-104.5 -5.5l-32 -2z M508 535l278 4l-131 481z" />
<glyph unicode="B" horiz-adv-x="1296" d="M104 133l123 25q5 24 12 85.5t7 90.5v715q0 138 -19 227l-121 24l11 154q92 -10 188 -10q44 0 207.5 10t208.5 10q193 0 327 -95t134 -257q0 -132 -79 -226.5t-206 -125.5v-15q159 -25 253.5 -115t94.5 -243q0 -99 -39 -176.5t-107 -124.5t-155 -71.5t-188 -24.5 q-63 0 -228.5 5t-224.5 5q-43 0 -90 -2.5t-73 -5.5l-25 -2zM563 395q0 -144 6 -231q55 -6 115 -6q112 0 180 69t68 189q0 239 -270 239h-21l14 179h13q102 0 159.5 64t57.5 189q0 89 -60.5 149t-154.5 60q-35 0 -101 -8q-6 -48 -6 -178v-715z" />
<glyph unicode="C" horiz-adv-x="1304" d="M55 721q0 168 46 306t134 238t225 155t312 55q29 0 56 -1t56.5 -4.5t49.5 -5t52 -8t45.5 -8.5t49 -10.5t43 -10t47.5 -11.5t43 -11l-24 -367l-158 9l-6 124q0 17 -25 84q-135 29 -229 29q-92 0 -160.5 -43t-108.5 -121t-59.5 -177t-19.5 -220t19 -220.5t59 -177.5 t108 -121.5t160 -43.5q116 0 254 30q1 4 10 27.5t16 45t7 28.5l6 96l154 4l16 -352q-87 -22 -143.5 -34t-146.5 -24t-171 -12q-175 0 -312 54.5t-225 154.5t-134 237.5t-46 305.5z" />
<glyph unicode="D" horiz-adv-x="1513" d="M92 133l135 25q19 135 19 176v715q0 45 -5 102t-9 91l-5 34l-133 24l10 154q109 -10 205 -10q49 0 213.5 10t214.5 10q175 0 312.5 -54t226.5 -152.5t135.5 -234.5t46.5 -302q0 -163 -46.5 -297t-135.5 -231.5t-226.5 -151t-312.5 -53.5q-65 0 -217 6t-213 6 q-43 0 -94 -2.5t-81 -5.5l-30 -2zM563 395q0 -131 8 -231q69 -6 134 -6q90 0 160.5 29t117 79t77 122.5t43.5 155.5t13 181q0 121 -22 220.5t-68 179.5t-127 124.5t-190 44.5q-44 0 -138 -16q-8 -140 -8 -168v-715z" />
<glyph unicode="E" horiz-adv-x="1261" d="M92 133l135 25q5 15 12 80.5t7 95.5v715q0 145 -19 227l-133 24l10 154q131 -10 205 -10h549q18 0 76.5 5t107.5 10l50 5l38 -37l15 -319l-148 -10q-12 97 -18 121q-6 26 -21 49q-82 8 -161 8h-226q-8 -148 -8 -166v-293q20 -2 53 -2h115q18 0 40.5 4.5t36.5 9.5l13 5 l19 131l127 -11q-2 -129 -2 -170l6 -260l-131 -12l-19 123q-90 12 -131 12h-63q-50 0 -64 -2v-250q0 -94 6 -217h256q71 0 158 17q28 52 39 88q21 80 25 116l143 -10l-31 -360l-39 -37q-192 8 -233 8h-578l-207 -10z" />
<glyph unicode="F" horiz-adv-x="1165" d="M92 133l135 25q5 15 12 80.5t7 95.5v715q0 158 -19 227l-133 24l10 154q109 -10 205 -10h549q18 0 76.5 5t107.5 10l50 5l38 -37l15 -319l-148 -10q-12 97 -18 121q-1 5 -18 47q-103 10 -164 10h-226q-8 -148 -8 -166v-315q23 -2 49 -2h119q18 0 40.5 4.5t36.5 8.5l13 5 l19 131l127 -10q-2 -129 -2 -170l6 -260l-131 -13l-19 123q-90 13 -131 13h-76q-35 0 -51 -2v-234q0 -148 19 -231l194 -13l-10 -155q-228 10 -459 10q-43 0 -94 -2.5t-81 -5.5l-30 -2z" />
<glyph unicode="G" horiz-adv-x="1431" d="M55 721q0 168 48 306t140.5 238t236.5 155t327 55q27 0 55 -1.5t50.5 -2.5t52 -5t47 -6t48 -8t43.5 -8t45.5 -9.5t41.5 -9.5t44.5 -10.5t41.5 -9.5l-27 -338l-162 8l-6 96q0 19 -24 84q-145 29 -250 29q-100 0 -175 -43t-119.5 -120.5t-66.5 -177t-22 -220.5t21.5 -220.5 t66 -177.5t119 -121.5t174.5 -43.5q92 0 201 16q14 65 14 86v139q0 18 -5 49.5t-11 53.5l-5 22l-217 17l11 200h227l235 7l58 -52q-19 -195 -19 -297v-362q-93 -22 -152 -34t-154 -24t-181 -12q-183 0 -327 54.5t-236.5 154.5t-140.5 237.5t-48 305.5z" />
<glyph unicode="H" horiz-adv-x="1693" d="M92 133l135 25q0 4 5.5 42.5t9.5 77t4 56.5v715q0 70 -19 227l-133 24l10 154q109 -10 205 -10q103 0 202.5 2.5t147.5 5.5l48 2l10 -166l-135 -12q-19 -98 -19 -166v-313l567 8v244q0 79 -18 227l-133 24l10 154q109 -10 205 -10q103 0 202 2.5t147 5.5l48 2l11 -166 l-136 -12q-18 -93 -18 -166v-715q0 -107 18 -237l133 -13l-10 -155q-166 10 -397 10q-43 0 -94 -2.5t-81 -5.5l-30 -2l-10 143l135 25q0 3 5 42.5t9 77.5t4 56v284h-567v-223q0 -99 19 -237l133 -13l-10 -155q-167 10 -398 10q-43 0 -94 -2.5t-81 -5.5l-30 -2z" />
<glyph unicode="I" horiz-adv-x="829" d="M102 133l136 25q0 3 5 42.5t9 77.5t4 56v715q0 79 -18 227l-134 24l11 154q108 -10 204 -10q103 0 202.5 2.5t147.5 5.5l48 2l10 -166l-135 -12q-19 -98 -19 -166v-715q0 -99 19 -237l133 -13l-10 -155q-167 10 -398 10q-43 0 -94 -2.5t-81 -5.5l-29 -2z" />
<glyph unicode="J" horiz-adv-x="759" d="M66 -346q155 328 155 369v1026q0 134 -18 227l-133 24l10 154q109 -10 205 -10q103 0 202 2.5t147 5.5l48 2l10 -166l-135 -12q-4 -17 -11 -77.5t-7 -88.5v-1090q0 -48 -101.5 -165t-261.5 -265z" />
<glyph unicode="K" horiz-adv-x="1538" d="M98 133l129 25q0 4 5.5 42.5t9.5 77t4 56.5v715q0 70 -19 227l-127 24l11 154q98 -10 196 -10q102 0 200 2t145 6l48 2l11 -166l-129 -12q-19 -98 -19 -166v-715q0 -99 19 -237l125 -13l-11 -155q-162 10 -391 10q-44 0 -93 -2.5t-76 -5.5l-27 -2zM571 723l332 459 l58 106l-64 12l10 154q101 -10 199 -10q101 0 186 2t120 6l34 2l10 -166l-119 -12q-86 -83 -155 -158l-264 -360q16 -19 177 -208t242 -286q7 -9 21.5 -23t26.5 -25t34 -30.5t31 -27.5l98 -13l-10 -155q-185 10 -414 10q-44 0 -92.5 -2.5t-75.5 -5.5l-26 -2l-10 143l79 17 q-99 157 -120 186q-19 22 -96 118.5t-145 182.5z" />
<glyph unicode="L" horiz-adv-x="1157" d="M92 133l135 25q0 4 5.5 42.5t9.5 77t4 56.5v715q0 70 -19 227l-133 24l10 154q109 -10 205 -10q103 0 202.5 2.5t147.5 5.5l48 2l10 -166l-135 -12q-19 -98 -19 -166v-715q0 -95 17 -217h192q75 0 158 17q38 83 39 88q19 73 24 116l144 -10l-31 -360l-39 -37 q-192 8 -233 8h-527q-43 0 -94 -2.5t-81 -5.5l-30 -2z" />
<glyph unicode="M" horiz-adv-x="2007" d="M76 127l139 25q16 58 29 118l57 895q0 43 -12 117l-137 25l10 147q129 -10 217 -10h289l41 -41q63 -233 88 -309l211 -641l229 671l84 279l41 41h199q47 0 114.5 2.5t111.5 5.5l44 2l8 -147l-131 -23q-6 -55 -6 -119l65 -895q2 -16 13.5 -61t13.5 -57l137 -13l-10 -149 q-148 10 -369 10q-38 0 -91 -2.5t-87 -5.5l-33 -2l-10 137l137 25q9 106 9 180l-33 729l-377 -1061h-188l-367 1061l-39 -729q0 -86 8 -180l140 -13l-13 -149q-94 10 -315 10q-38 0 -90 -2.5t-85 -5.5l-32 -2z" />
<glyph unicode="N" horiz-adv-x="1642" d="M92 133l135 25q19 109 19 176v715q0 118 -19 227l-133 24l10 154q109 -10 205 -10h209l39 -41q149 -258 180 -303l451 -629v578q0 70 -19 227l-133 24l11 154l204 -10q74 0 159 2.5t133 5.5l48 2l11 -166l-136 -12q-18 -112 -18 -166v-1110h-277l-665 922v-527 q0 -57 18 -237l133 -13l-10 -155q-109 10 -340 10q-43 0 -94 -2.5t-81 -5.5l-30 -2z" />
<glyph unicode="O" horiz-adv-x="1572" d="M55 721q0 347 199 554.5t532 207.5t532.5 -207.5t199.5 -554.5q0 -346 -199.5 -553t-532.5 -207t-532 207t-199 553zM424 721q0 -286 89 -423.5t273 -137.5q185 0 274 137.5t89 423.5q0 287 -89 425t-274 138t-273.5 -138t-88.5 -425z" />
<glyph unicode="P" horiz-adv-x="1261" d="M92 133l135 25q0 4 5.5 42.5t9.5 77t4 56.5v715q0 70 -19 227l-133 24l10 154q107 -10 203 -10q55 0 219.5 10t221.5 10q219 0 351 -118t132 -330q0 -140 -78.5 -247t-203.5 -160.5t-273 -53.5h-113v-160q0 -99 19 -237l153 -13l-10 -155q-187 10 -418 10q-43 0 -94 -2.5 t-81 -5.5l-30 -2zM563 723h35q141 0 222 77.5t81 217.5q0 145 -65 211.5t-207 66.5q-4 0 -24 -1t-34 -1q-8 -106 -8 -184v-387z" />
<glyph unicode="Q" horiz-adv-x="1585" d="M55 721q0 347 199 554.5t532 207.5t532.5 -207.5t199.5 -554.5q0 -247 -105.5 -426.5t-294.5 -265.5l142 -95q15 -9 95.5 -43.5t154.5 -64.5l73 -31l-184 -254l-570 420h-43q-333 0 -532 207t-199 553zM424 721q0 -286 89 -423.5t273 -137.5q185 0 274 137.5t89 423.5 q0 287 -89 425t-274 138t-273.5 -138t-88.5 -425z" />
<glyph unicode="R" horiz-adv-x="1353" d="M92 133l135 25q0 4 5.5 42.5t9.5 77t4 56.5v715q0 45 -3.5 89t-9.5 90t-6 48l-133 24l10 154q109 -10 211 -10q59 0 213 10t209 10q216 0 348 -116t132 -316q0 -126 -67.5 -227t-182.5 -162q23 -45 49 -93t48 -85t45 -74.5t37 -60t27 -42.5l13 -20l71 -114l99 -9 l-10 -155q-161 10 -392 10q-73 189 -100 238l-170 329h-31q-37 0 -90 6v-178q0 -99 19 -237l133 -13l-10 -155q-167 10 -398 10q-43 0 -94 -2.5t-81 -5.5l-30 -2zM563 739h49q143 0 209 72.5t66 216.5q0 136 -66 202t-203 66q-25 0 -43 -2q-12 -122 -12 -184v-371z" />
<glyph unicode="S" horiz-adv-x="1173" d="M90 68l31 395l170 -10q2 -119 2 -144q0 -11 29 -84q107 -57 221 -57q93 0 153 44t60 128q0 61 -36 109t-93.5 82t-127 67.5t-139 73.5t-127 90t-93.5 128t-36 177q0 186 134.5 297t347.5 111q204 0 450 -74l-28 -395l-170 10v151q0 7 -25 70q-85 47 -166 47 q-93 0 -149 -44.5t-56 -121.5q0 -55 36 -99.5t93.5 -77t127 -65t139 -72.5t127 -89t93.5 -125t36 -172q0 -137 -70.5 -240t-189.5 -156t-267 -53q-77 0 -154.5 10t-133 24.5t-100 29.5t-67.5 25z" />
<glyph unicode="T" horiz-adv-x="1282" d="M20 1087l15 340l39 37q192 -20 233 -20h668q18 0 76.5 5t107.5 10l49 5l39 -37l17 -340l-148 -10q-6 96 -18 142q-1 4 -4 10.5t-7.5 18t-7.5 18.5q-92 10 -155 10h-105q-18 -99 -18 -166v-715q0 -107 18 -237l133 -13l-10 -155q-166 10 -397 10q-43 0 -94 -2.5t-81 -5.5 l-30 -2l-10 143l135 25q0 3 5 42.5t9 77.5t4 56v715q0 69 -18 227h-96q-61 0 -164 -10q-3 -7 -7.5 -18.5t-7.5 -18t-4 -10.5q-12 -46 -18 -142z" />
<glyph unicode="U" horiz-adv-x="1595" d="M53 1300l10 154q109 -10 205 -10q103 0 205 2.5t153 5.5l50 2l10 -166l-135 -12q-5 -19 -12 -78t-7 -88v-578q0 -144 79 -236.5t220 -92.5q155 0 222 83.5t67 245.5v517q0 87 -18 227l-133 24l10 154q109 -10 205 -10q103 0 190.5 2.5t123.5 5.5l36 2l10 -166l-135 -12 q-5 -24 -11.5 -80.5t-6.5 -85.5v-561q0 -268 -154 -424t-440 -156q-287 0 -439.5 155.5t-152.5 424.5v500q0 135 -19 227z" />
<glyph unicode="V" horiz-adv-x="1447" d="M-2 1311l10 143q113 -10 189 -10q103 0 209.5 2t161.5 6l55 2l10 -149l-133 -19q4 -69 16 -106l238 -756l260 784q6 18 9.5 37.5t4.5 30.5v10l-131 25l10 143q130 -10 226 -10q76 0 151 2t112 6l38 2l10 -149l-103 -15q-69 -115 -92 -176l-409 -1114h-236l-428 1182 q-8 23 -22 50.5t-24 43.5l-9 16z" />
<glyph unicode="W" horiz-adv-x="2107" d="M4 1311l10 143q113 -10 189 -10q103 0 209.5 2t161.5 6l55 2l10 -149l-133 -19q-1 -12 -1 -26q0 -40 9 -80l184 -756l273 958h231l268 -958l207 784q5 20 6 39.5t-1 28.5l-1 10l-131 25l11 143q129 -10 225 -10q76 0 151 2t113 6l37 2l10 -149l-102 -15q-55 -94 -82 -176 l-357 -1114h-235l-262 866l-275 -866h-235l-375 1182q-9 28 -20.5 55.5t-19.5 40.5l-7 14z" />
<glyph unicode="X" horiz-adv-x="1427" d="M14 133l107 19q142 147 168 184l254 366l-307 441l-109 151l-109 17l13 143q116 -10 192 -10q103 0 203 2.5t148 5.5l49 2l6 -151l-86 -11q51 -109 84 -155l116 -176l140 223q31 47 59 110l-84 17l12 143q109 -10 205 -10q76 0 151 2.5t112 5.5l38 2l8 -151l-133 -17 q-103 -98 -121 -121l-256 -391l357 -504q72 -85 100 -114l105 -11l-13 -155q-168 10 -399 10q-34 0 -79 -2.5t-73 -5.5l-28 -2l-8 143l75 14q-56 114 -80 144l-159 227l-168 -248q-33 -50 -64 -116l101 -9l-13 -155q-131 10 -301 10q-43 0 -94 -2.5t-81 -5.5l-29 -2z" />
<glyph unicode="Y" horiz-adv-x="1458" d="M-12 1311l10 143q112 -10 188 -10q103 0 209.5 2.5t161.5 5.5l55 2l11 -149l-109 -19q15 -67 35 -106l215 -424l225 452q4 7 6 26.5t2 35.5v16l-90 25l11 143q129 -10 225 -10q76 0 151 2.5t112 5.5l38 2l10 -149l-123 -15q-92 -110 -127 -176l-313 -602v-117 q0 -107 18 -237l133 -13l-10 -155q-166 10 -397 10q-43 0 -94 -2.5t-81 -5.5l-30 -2l-10 143l135 25q0 3 5 42.5t9 77.5t4 56v176l-364 672q-13 22 -37.5 49.5t-42.5 44.5l-18 16z" />
<glyph unicode="Z" horiz-adv-x="1251" d="M66 164q178 237 227 321l358 572l103 205h-314q-57 0 -170 -11l-26 -57q-24 -92 -31 -156l-147 11l14 378l41 37q194 -20 235 -20h777l20 -164l-219 -330l-320 -516l-131 -252h322q81 0 172 17q39 84 41 96q21 83 26 121l140 -10l-31 -377l-41 -37q-194 8 -235 8h-791z " />
<glyph unicode="[" horiz-adv-x="542" d="M82 -188q10 340 10 381v935l-10 373l49 60l344 8l6 -135l-141 -19q-18 -102 -18 -184v-1149q0 -36 4.5 -82t9.5 -74l4 -28l141 -19l-6 -135q-203 8 -344 8z" />
<glyph unicode="\" horiz-adv-x="815" d="M-14 1522l190 61l627 -1655l-193 -61z" />
<glyph unicode="]" horiz-adv-x="542" d="M61 -121l142 19q18 102 18 184v1149q0 36 -4.5 82t-8.5 74l-5 28l-142 19l7 135q203 -8 344 -8l49 -60q-10 -332 -10 -373v-935l10 -381l-49 -60l-344 -8z" />
<glyph unicode="^" horiz-adv-x="1204" d="M41 764l561 735l561 -735l-182 -121l-379 541l-379 -541z" />
<glyph unicode="_" horiz-adv-x="1032" d="M0 -281h1032l-10 -194h-1018z" />
<glyph unicode="`" horiz-adv-x="737" d="M109 1391l96 155l424 -270l-97 -119l-137 100z" />
<glyph unicode="a" horiz-adv-x="1071" d="M57 270q0 239 271 283l290 47v59q0 100 -35 142.5t-118 42.5q-86 0 -166 -39l-14 -82l2 -88l-154 -6l-31 346q93 23 200.5 39t174.5 16q203 0 315.5 -96.5t112.5 -271.5v-267q0 -45 4.5 -104.5t9.5 -96.5l5 -36l123 -13l-13 -155q-102 10 -377 10l-16 147 q-91 -167 -283 -167q-140 0 -220.5 77.5t-80.5 212.5zM360 315q0 -125 111 -125q54 0 93 35t54 97v145l-151 -25q-57 -10 -82 -40t-25 -87z" />
<glyph unicode="b" horiz-adv-x="1173" d="M-18 1415l18 154q154 -21 240 -21l180 4l43 -39q-21 -270 -21 -372v-254q56 70 125 106.5t166 36.5q103 0 179.5 -39.5t121.5 -110t66.5 -160.5t21.5 -200q0 -255 -132.5 -397.5t-381.5 -142.5q-223 0 -473 73q21 240 21 281v868q0 18 -5 62.5t-11 79.5l-5 36zM442 395 q0 -8 7 -194q87 -27 135 -27q65 0 108.5 23.5t65.5 70t30.5 99.5t8.5 127q0 65 -6 113t-23.5 95t-54 72t-90.5 25q-166 0 -181 -267v-137z" />
<glyph unicode="c" horiz-adv-x="954" d="M51 502q0 246 134.5 387t367.5 141q80 0 170.5 -12t140.5 -24l51 -13l-30 -363l-174 7l2 110q-4 52 -8 80q-27 24 -64 38.5t-70 14.5q-100 0 -147 -88.5t-47 -277.5q0 -334 246 -334q63 0 122.5 16t88.5 32l28 17l72 -118q-78 -69 -175.5 -107.5t-195.5 -38.5 q-250 0 -381 136.5t-131 396.5z" />
<glyph unicode="d" horiz-adv-x="1204" d="M49 489q0 258 134 399.5t380 141.5q68 0 166 -10v182q0 18 -5 62.5t-10 79.5l-5 36l-154 35l18 154q154 -21 240 -21l180 4l43 -39q-20 -270 -20 -372v-746q0 -45 4.5 -104.5t9.5 -96.5l4 -36l123 -13l-12 -155q-102 10 -377 10l-16 154q-64 -92 -139 -133t-175 -41 q-187 0 -288 132t-101 377zM375 516q0 -157 42.5 -231t131.5 -74q165 0 180 266v332q-85 27 -141 27q-112 0 -162.5 -75.5t-50.5 -244.5z" />
<glyph unicode="e" horiz-adv-x="1019" d="M51 496q0 254 134 394t360 140q217 0 329 -132q100 -117 101 -315q0 -25 -2 -51l-43 -79h-551q10 -155 71 -221t185 -66q67 0 129 17t90 33l29 17l71 -118q-161 -146 -401 -146q-236 0 -369 138.5t-133 388.5zM377 602l272 16q2 13 2 17q0 233 -129 233q-74 0 -106 -68.5 t-39 -197.5z" />
<glyph unicode="f" horiz-adv-x="739" d="M72 133l114 25q19 135 19 176v524h-117l-6 129q16 5 59.5 18t63.5 21v162q0 171 101.5 280t268.5 109q63 0 138.5 -7.5t119.5 -14.5l44 -7l-31 -342l-152 6v93q0 28 -8 90q-36 16 -76 16q-72 0 -95 -55.5t-23 -188.5v-155h227l-19 -154h-208v-463q0 -45 4.5 -104.5 t9.5 -96.5l4 -36l174 -13l-10 -155q-156 10 -387 10q-43 0 -94 -2.5t-81 -5.5l-30 -2z" />
<glyph unicode="g" horiz-adv-x="1073" d="M55 -188q0 33 52.5 82.5t136.5 97.5q-88 62 -88 188q0 42 125 164q-89 46 -138 127t-49 184q0 169 121.5 272t319.5 103q130 0 223 -43l268 45l8 -176h-121q54 -80 54 -192q0 -169 -121.5 -272t-319.5 -103q-73 0 -139 16q-29 -36 -29 -55q0 -34 38.5 -51.5t131.5 -26.5 q216 -24 299.5 -36t120.5 -25q107 -41 107 -191q0 -111 -72.5 -203t-199 -145t-277.5 -53q-224 0 -337.5 74t-113.5 219zM328 -156q0 -78 69 -119.5t199 -41.5q97 0 153 34.5t56 94.5q0 28 -18 46.5t-50 22.5l-266 41q-57 8 -106 21q-37 -49 -37 -99zM406 651 q0 -227 122 -227q127 0 127 244q0 116 -29.5 171.5t-90.5 55.5q-129 0 -129 -244z" />
<glyph unicode="h" horiz-adv-x="1292" d="M25 1415l18 154q154 -21 240 -21l180 4l43 -39q-21 -231 -21 -372v-250q113 139 279 139q178 0 270 -92.5t92 -271.5v-271q0 -45 5 -104.5t9 -96.5l5 -36l133 -13l-10 -155q-136 10 -367 10q-43 0 -87 -2.5t-66 -5.5l-23 -2l-10 143l114 25q2 30 4.5 71.5t4.5 68.5t2 36 v303q0 84 -38 136t-114 52q-82 0 -142.5 -75.5t-60.5 -206.5v-148q0 -45 4.5 -104.5t9.5 -96.5l5 -36l133 -13l-10 -155q-136 10 -367 10q-43 0 -94 -2.5t-81 -5.5l-30 -2l-10 143l135 25q19 109 19 176v868q0 18 -5.5 62.5t-10.5 79.5l-5 36z" />
<glyph unicode="i" horiz-adv-x="679" d="M35 879l18 151q154 -18 240 -18l180 4l43 -39q-20 -271 -20 -373v-209q0 -45 4.5 -104.5t9.5 -96.5l4 -36l133 -13l-10 -155q-136 10 -367 10q-43 0 -94 -2.5t-80 -5.5l-30 -2l-11 143l135 25q19 135 19 176v332q0 18 -5.5 62.5t-10.5 79.5l-5 36zM184 1341q0 74 43 119 t119 45q75 0 118.5 -44t43.5 -120q0 -73 -42.5 -117t-119.5 -44t-119.5 44t-42.5 117z" />
<glyph unicode="j" horiz-adv-x="630" d="M10 879l19 151q153 -18 239 -18l181 4l43 -39q-21 -271 -21 -373v-624q0 -36 -86 -151.5t-172 -212.5l-86 -97l-96 53q153 389 153 471v623q0 18 -5 62.5t-10 79.5l-5 36zM147 1341q0 74 43 119t119 45q75 0 118.5 -44t43.5 -120q0 -73 -42.5 -117t-119.5 -44t-119.5 44 t-42.5 117z" />
<glyph unicode="k" horiz-adv-x="1251" d="M25 1415l18 154q154 -21 240 -21l180 4l43 -39q-21 -231 -21 -372v-746q0 -45 4.5 -104.5t9.5 -96.5l5 -36l133 -13l-10 -155q-136 10 -367 10q-43 0 -94 -2.5t-81 -5.5l-30 -2l-10 143l135 25q19 109 19 176v868q0 18 -5.5 62.5t-10.5 79.5l-5 36zM508 543l256 321 l-111 13l11 145q182 -10 325 -10l238 8l-4 -143l-109 -11q-144 -84 -168 -116l-137 -177l154 -241q6 -10 31 -37t66.5 -70t63.5 -67l123 -13l-12 -155q-112 10 -231 10h-201l-60 123l-8 16l-45 86z" />
<glyph unicode="l" horiz-adv-x="673" d="M25 1415l18 154q154 -21 240 -21l180 4l43 -39q-21 -231 -21 -372v-746q0 -45 4.5 -104.5t9.5 -96.5l5 -36l133 -13l-10 -155q-136 10 -367 10q-43 0 -94 -2.5t-81 -5.5l-30 -2l-10 143l135 25q19 109 19 176v868q0 18 -5.5 62.5t-10.5 79.5l-5 36z" />
<glyph unicode="m" horiz-adv-x="1878" d="M35 879l18 151q154 -18 240 -18l98 4l43 -39l21 -143q63 94 140.5 145t182.5 51q223 0 295 -180q126 180 313 180q160 0 243 -93t83 -271v-271q0 -45 5 -104.5t9 -96.5l5 -36l133 -13l-11 -155q-135 10 -366 10q-43 0 -87 -2.5t-66 -5.5l-23 -2l-11 143l115 25 q2 29 4.5 71.5t4 69t1.5 35.5v303q0 85 -33 136.5t-102 51.5q-76 0 -131 -75.5t-55 -206.5v-148q0 -45 4.5 -104.5t9.5 -96.5l4 -36l133 -13l-10 -155q-135 10 -366 10q-43 0 -87 -2.5t-67 -5.5l-23 -2l-10 143l115 25q2 29 4.5 71.5t4 69t1.5 35.5v303q0 85 -33 136.5 t-102 51.5q-76 0 -131 -75.5t-55 -206.5v-148q0 -45 4.5 -104.5t9.5 -96.5l4 -36l133 -13l-10 -155q-136 10 -367 10q-43 0 -94 -2.5t-80 -5.5l-30 -2l-11 143l135 25q19 135 19 176v332q0 18 -5.5 62.5t-10.5 79.5l-5 36z" />
<glyph unicode="n" horiz-adv-x="1302" d="M35 879l18 151q154 -18 240 -18l98 4l43 -39l21 -148q66 97 147.5 149t192.5 52q167 0 254.5 -93t87.5 -271v-271q0 -45 4.5 -104.5t8.5 -96.5l5 -36l133 -13l-10 -155q-136 10 -367 10q-43 0 -87 -2.5t-66 -5.5l-23 -2l-10 143l115 25q2 29 4.5 71.5t4 69t1.5 35.5v303 q0 84 -38 136t-114 52q-82 0 -142 -75.5t-60 -206.5v-148q0 -45 4.5 -104.5t9.5 -96.5l4 -36l133 -13l-10 -155q-136 10 -367 10q-43 0 -94 -2.5t-80 -5.5l-30 -2l-11 143l135 25q19 135 19 176v332q0 18 -5.5 62.5t-10.5 79.5l-5 36z" />
<glyph unicode="o" horiz-adv-x="1114" d="M51 500q0 256 130.5 393t375.5 137t375.5 -137t130.5 -393q0 -255 -131 -393t-375 -138t-375 138t-131 393zM377 500q0 -189 42.5 -273t137.5 -84t137.5 84t42.5 273t-42.5 272.5t-137.5 83.5t-137.5 -83.5t-42.5 -272.5z" />
<glyph unicode="p" horiz-adv-x="1206" d="M14 879l19 151q139 -18 239 -18l99 4l43 -39l20 -150q65 106 144 154.5t188 48.5q187 0 288 -132.5t101 -377.5q0 -258 -134 -399t-380 -141q-71 0 -166 10v-64q0 -45 5.5 -107t10.5 -101l5 -40l161 -12l-10 -145q-135 10 -366 10q-43 0 -94 -2.5t-81 -4.5l-30 -3 l-10 133l102 24q20 146 20 187v801q0 18 -5 62.5t-10 79.5l-5 36zM475 203q89 -29 141 -29q112 0 162.5 75.5t50.5 244.5q0 157 -42.5 231t-131.5 74q-81 0 -126.5 -68t-53.5 -199v-329z" />
<glyph unicode="q" horiz-adv-x="1169" d="M51 487q0 258 134 399.5t380 141.5q224 0 473 -74q-20 -239 -20 -280v-750q0 -45 5 -107t10 -101l5 -40l101 -12l-11 -145q-135 10 -366 10q-43 0 -94 -2.5t-81 -4.5l-30 -3l-10 133l164 24q20 146 20 187v258q-59 -76 -129 -110t-162 -34q-187 0 -288 132.5t-101 377.5z M377 514q0 -157 42.5 -231t131.5 -74q165 0 180 266v137q0 38 -6 197q-86 25 -135 25q-112 0 -162.5 -75.5t-50.5 -244.5z" />
<glyph unicode="r" horiz-adv-x="937" d="M35 879l18 153q154 -20 240 -20l98 4l43 -39l19 -135q120 188 288 188q33 0 75 -5t68 -10l25 -5l-30 -412l-152 6v113q0 6 -16 106q-4 2 -13 2q-82 0 -142 -75.5t-60 -206.5v-148q0 -45 4.5 -104.5t9.5 -96.5l4 -36l170 -13l-10 -155q-156 10 -387 10q-43 0 -99.5 -2.5 t-91.5 -5.5l-35 -2l-10 143l139 25q19 135 19 176v332q0 18 -5.5 62.5t-10.5 79.5l-5 36z" />
<glyph unicode="s" horiz-adv-x="878" d="M61 27l25 338l145 -11v-92q0 -4 4.5 -23.5t9.5 -36.5t5 -16q108 -45 180 -45q56 0 93.5 23.5t37.5 64.5q0 29 -21 52t-56 38.5t-79 34.5t-90.5 37t-90.5 48t-79 66t-56 93t-21 127q0 152 102.5 228.5t280.5 76.5q175 0 327 -49l-24 -324l-138 11v88q0 7 -10 34.5 t-18 43.5q-74 32 -144 32q-68 0 -100.5 -22t-32.5 -56q0 -30 28 -54t73.5 -42t100 -38t109 -48.5t100 -66.5t73.5 -99.5t28 -140.5q0 -154 -107.5 -236.5t-291.5 -82.5q-67 0 -157.5 12t-148.5 24z" />
<glyph unicode="t" horiz-adv-x="733" d="M29 987q11 5 40.5 16.5t51.5 20t47.5 19t40.5 18.5t18 12q12 16 40 60.5t51 80.5l22 37l113 -8v-231h243l-18 -154h-225v-565q0 -54 28.5 -91.5t77.5 -37.5q24 0 51.5 10t43.5 20l16 11l75 -117q-65 -51 -127 -79.5t-145 -28.5q-164 0 -235.5 83t-71.5 256v539h-131z" />
<glyph unicode="u" horiz-adv-x="1273" d="M35 879l18 151q144 -18 230 -18l149 4l43 -39q-20 -271 -20 -373v-219q0 -85 36.5 -136.5t112.5 -51.5q82 0 141.5 75.5t59.5 206.5v187q0 18 -5.5 62.5t-10.5 79.5l-5 36l-153 35l18 151q154 -18 240 -18l180 4l43 -39q-20 -271 -20 -373v-209q0 -45 4.5 -104.5 t9.5 -96.5l4 -36l123 -13l-12 -155q-102 10 -377 10l-19 160q-122 -168 -297 -168q-178 0 -269 92.5t-91 271.5v310q0 18 -5 64t-11 83l-5 37z" />
<glyph unicode="v" horiz-adv-x="1144" d="M-6 889l10 141q162 -18 305 -18q36 0 89.5 2t88.5 6l35 2l10 -145l-92 -9q10 -82 25 -143l115 -422l139 422q16 49 37 143l-92 9l10 145q121 -10 264 -10q36 0 81 2t72 6l27 2l10 -145l-92 -13q-85 -178 -96 -211l-246 -653h-260q-230 660 -246 705q-24 80 -61 161z" />
<glyph unicode="w" horiz-adv-x="1705" d="M4 889l10 141q142 -18 285 -18l252 10l10 -145l-135 -9q22 -117 29 -145l114 -420l217 709h181l190 -709l133 424q17 54 37 141l-119 9l11 145q147 -10 290 -10q36 0 80.5 2.5t70.5 5.5l26 2l10 -145l-88 -13q-88 -185 -97 -211l-239 -653h-266l-152 494l-166 -494h-264 q-230 660 -246 705q-24 80 -61 161z" />
<glyph unicode="x" horiz-adv-x="1177" d="M29 141l77 15l189 221l102 139l-102 146l-193 212l-67 17l10 139q178 -18 317 -18q36 0 87.5 2.5t85.5 5.5l34 2l11 -143l-97 -9l49 -84l78 -127l74 121l57 90l-69 9l10 143q119 -10 258 -10q36 0 80.5 2.5t71.5 5.5l26 2l10 -143l-73 -13l-197 -229l-86 -117l125 -170 l180 -196l84 -23l-6 -149q-180 18 -319 18q-36 0 -87.5 -2.5t-85.5 -5.5l-34 -2l-11 151l82 9l-26 45l-117 176l-121 -187l-16 -34l65 -7l-10 -153q-117 10 -258 10q-36 0 -80.5 -2.5t-70.5 -5.5l-27 -2z" />
<glyph unicode="y" horiz-adv-x="1169" d="M8 889l12 141q152 -18 285 -18q40 0 98 2.5t96 5.5l38 2l8 -145l-86 -11q7 -76 28 -137l129 -405l125 409q22 68 25 133l-90 11l12 145q111 -10 244 -10q40 0 96 2.5t92 5.5l35 2l8 -145l-100 -11q-16 -28 -45.5 -94.5t-40.5 -99.5l-447 -1153l-405 26l22 162l113 -4 q50 0 90 12q41 47 64 115l63 170l-254 666q-56 146 -86 200z" />
<glyph unicode="z" horiz-adv-x="942" d="M43 143q143 156 172 201l250 377q22 31 67 127h-161q-5 0 -28 -4.5t-54.5 -10t-50.5 -8.5q-27 -61 -27 -86l-8 -116l-156 6l10 348l43 41q148 -6 189 -6h588l14 -142l-158 -200l-246 -379q-16 -22 -65 -127h166q5 0 31 4t61.5 10t54.5 8q33 77 33 86q1 5 7.5 46.5 t6.5 43.5l142 -12l-23 -315l-41 -41q-151 6 -192 6h-596z" />
<glyph unicode="{" horiz-adv-x="591" d="M61 606l9 101q17 0 68 25.5t75 51.5l-61 717l49 60l344 8l6 -135l-141 -19q-19 -102 -19 -184l21 -479q-27 -25 -62.5 -46.5t-57.5 -30.5l-22 -9v-19q81 -29 142 -86l-21 -479q0 -36 4.5 -82t9.5 -74l5 -28l141 -19l-6 -135q-203 8 -344 8l-49 60l59 716q-25 26 -77 52 t-73 26z" />
<glyph unicode="|" horiz-adv-x="571" d="M188 -231v1787l195 -16v-1790z" />
<glyph unicode="}" horiz-adv-x="591" d="M41 -121l141 19q19 102 19 184l-21 479q27 25 62.5 46.5t57.5 30.5l22 9v19q-81 29 -142 86l21 479q0 36 -4.5 82t-9.5 74l-5 28l-141 19l6 135q203 -8 344 -8l49 -60l-61 -717q24 -27 76 -52t75 -25l-8 -101q-16 0 -67.5 -26.5t-75.5 -51.5l61 -716l-49 -60l-344 -8z " />
<glyph unicode="~" horiz-adv-x="1236" d="M123 442q6 10 16 26t39.5 57t57.5 72.5t64 57t65 25.5q60 0 162 -31t198 -61.5t141 -30.5q27 0 61.5 25t55.5 50l21 25l110 -92q-6 -10 -16 -26t-39.5 -56.5t-57.5 -72t-64 -57t-65 -25.5q-63 0 -255 61.5t-246 61.5q-27 0 -61.5 -25t-55.5 -50l-21 -26z" />
<glyph unicode="&#xa1;" horiz-adv-x="489" d="M53 -410q51 447 51 768l-6 158l35 33q12 -2 84 -6t125 -4q-2 -75 -2 -136l18 -852l-245 -18zM74 877q0 74 39.5 118.5t111.5 44.5q71 0 111.5 -43.5t40.5 -119.5q0 -74 -40 -118t-112 -44t-111.5 44t-39.5 118z" />
<glyph unicode="&#xa2;" horiz-adv-x="1036" d="M82 666q0 226 118.5 368.5t338.5 157.5l10 219l131 -6l-8 -215q65 -5 133.5 -16.5t104.5 -19.5l36 -9l-31 -363l-153 6l2 111l-8 80q-61 53 -133 53q-57 0 -97.5 -20.5t-63 -51.5t-35 -82t-16 -98t-3.5 -114q0 -73 11.5 -130t37.5 -104.5t75.5 -73.5t120.5 -26 q63 0 123 16t88 32l29 17l72 -118q-153 -134 -336 -146l-8 -219l-134 6l9 219q-204 25 -309 160t-105 367z" />
<glyph unicode="&#xa3;" horiz-adv-x="1261" d="M92 805l182 8v143q0 129 62.5 223.5t167 140.5t239.5 46q150 0 416 -66l-24 -333l-148 6l-6 92q0 20 -16 78q-102 43 -224 43q-75 0 -122.5 -54.5t-47.5 -132.5v-174l361 17l4 -131l-365 -19v-84l371 17l4 -131l-375 -19v-80q0 -63 15 -217h250q72 0 155 17q36 70 41 88 q21 80 25 116l143 -10l-31 -360l-39 -37q-192 8 -233 8h-578q-41 0 -88 -2.5t-73 -5.5l-27 -2l-10 143l135 25q18 135 18 176v129l-168 -8l-4 133l172 6v86l-178 -8z" />
<glyph unicode="&#xa5;" horiz-adv-x="1339" d="M25 1202l10 144q98 -11 194 -11q103 0 194.5 2.5t132.5 5.5l40 3l10 -156l-112 -10q22 -64 30 -78l176 -320l195 342l18 54l-141 24l10 144q131 -11 215 -11q103 0 180 2.5t103 5.5l25 3l10 -156l-101 -12q-123 -143 -137 -177l-98 -165l147 6l4 -131l-231 -11l-51 -88 l289 13l4 -131l-320 -15v-84q0 -45 4.5 -104.5t9.5 -96.5l5 -36h-334q18 135 18 176v133l-305 -12l-4 133l260 10l-47 82l-219 -8l-4 133l149 6l-137 246q-20 39 -92 123zM371 133l135 25h334l133 -13l-10 -155q-136 10 -367 10q-43 0 -96.5 -2.5t-85.5 -5.5l-33 -2z" />
<glyph unicode="&#xa6;" horiz-adv-x="571" d="M188 -231v665l195 -14v-670zM188 819v737l195 -16v-737z" />
<glyph unicode="&#xa7;" horiz-adv-x="1175" d="M164 565q0 54 27.5 115.5t54.5 95.5l28 35l33 -20q0 -52 40 -95t104 -76t141 -66.5t154.5 -73.5t141.5 -87.5t104 -119t40 -158.5q0 -158 -119.5 -244t-310.5 -86q-202 0 -416 59l25 328l145 -10v-111q0 -13 11 -63q58 -37 178 -37q79 0 126.5 35.5t47.5 97.5 q0 39 -30.5 72t-79.5 57.5t-108 48.5t-118.5 52t-108.5 60.5t-79.5 81.5t-30.5 109zM164 1145q0 158 116.5 244t303.5 86q174 0 385 -60l-25 -307l-145 10v111q0 5 -8 41q-48 39 -150 39q-75 0 -119.5 -35.5t-44.5 -97.5q0 -39 30.5 -72t79.5 -57.5t108 -48.5t118.5 -52 t108.5 -61t79.5 -82t30.5 -109q0 -54 -27.5 -115t-54.5 -95l-28 -35l-33 20q0 52 -40 95t-104 76t-141 66.5t-154.5 73.5t-141.5 87.5t-104 119t-40 158.5z" />
<glyph unicode="&#xa8;" horiz-adv-x="737" d="M-12 1341q0 65 36.5 104.5t102.5 39.5q64 0 100.5 -38t36.5 -106q0 -65 -35.5 -103t-101.5 -38t-102.5 38.5t-36.5 102.5zM475 1341q0 65 35.5 104.5t101.5 39.5q65 0 101.5 -38.5t36.5 -105.5q0 -64 -36 -102.5t-102 -38.5t-101.5 38t-35.5 103z" />
<glyph unicode="&#xa9;" horiz-adv-x="1730" d="M117 512q0 152 59.5 291t160 239t238.5 159t289 59q153 0 292 -58.5t239.5 -158t159.5 -238.5t59 -293q0 -150 -59.5 -288t-160 -239t-239.5 -161t-291 -60q-150 0 -287.5 58t-238.5 157t-161 238.5t-60 294.5zM258 512q0 -122 48.5 -234.5t129.5 -193.5t193.5 -129.5 t234.5 -48.5q124 0 236 48.5t193 130t129 193.5t48 234t-48 233.5t-129 193.5t-193.5 130.5t-235.5 48.5q-164 0 -303 -80t-221 -219.5t-82 -306.5zM455 518q0 197 112 313.5t324 116.5q30 0 58 -2t60.5 -7.5t47.5 -8.5t54 -12t46 -11l-18 -223l-101 4l-6 80q0 15 -14 43 q-74 12 -127 12q-66 0 -108 -41.5t-59 -106.5t-17 -155q0 -138 43.5 -221.5t138.5 -83.5q69 0 145 16q19 46 19 52l6 57l96 2l10 -211q-5 -1 -29.5 -6.5t-33 -7.5t-31.5 -7t-35 -6.5t-33.5 -5t-37 -5t-35.5 -2.5t-39 -1q-212 0 -324 116.5t-112 311.5z" />
<glyph unicode="&#xaa;" horiz-adv-x="724" d="M41 1102q0 157 178 184l189 29v39q0 62 -23 88t-74 26q-53 0 -106 -24l-10 -51l2 -68l-107 -4l-20 233q144 37 247 37q136 0 215.5 -62.5t79.5 -168.5v-174q0 -30 3 -69.5t5 -64.5l3 -24l79 -8l-8 -105q-65 7 -264 7l-8 94q-32 -57 -74.5 -83t-105.5 -26q-94 0 -147.5 52 t-53.5 143zM258 1133q0 -40 16.5 -58t51.5 -18q61 0 82 71v97l-82 -11q-37 -8 -52.5 -26t-15.5 -55z" />
<glyph unicode="&#xab;" horiz-adv-x="909" d="M41 496l313 475l138 -92l-216 -383l216 -383l-138 -93zM397 496l314 475l137 -92l-215 -383l215 -383l-137 -93z" />
<glyph unicode="&#xac;" horiz-adv-x="1198" d="M133 424v207h932v-498h-197l4 299z" />
<glyph unicode="&#xad;" horiz-adv-x="577" d="M61 616h455l-10 -194h-440z" />
<glyph unicode="&#xae;" horiz-adv-x="1730" d="M117 512q0 152 59.5 291t160 239t238.5 159t289 59q153 0 292 -58.5t239.5 -158t159.5 -238.5t59 -293q0 -150 -59.5 -288t-160 -239t-239.5 -161t-291 -60q-150 0 -287.5 58t-238.5 157t-161 238.5t-60 294.5zM258 512q0 -122 48.5 -234.5t129.5 -193.5t193.5 -129.5 t234.5 -48.5q124 0 236 48.5t193 130t129 193.5t48 234t-48 233.5t-129 193.5t-193.5 130.5t-235.5 48.5q-164 0 -303 -80t-221 -219.5t-82 -306.5zM506 217l74 12q10 60 10 105v366q0 32 -2 61t-5 55t-3 30l-72 14l6 98q57 -6 125 -6q37 0 131 6.5t127 6.5q129 0 210 -68 t81 -182q0 -69 -36.5 -125t-100.5 -92q24 -49 55.5 -101t51 -79.5t24.5 -32.5q3 -6 15.5 -25.5t19.5 -32.5l45 -6l-5 -96q-93 6 -245 6q-44 106 -58 135l-94 178h-53v-75q0 -22 2 -46.5t4 -40.5t5 -33.5t3 -19.5l66 -8l-4 -96q-106 6 -258 6q-31 0 -59.5 -1.5t-41.5 -3.5 l-12 -1zM807 555h10q79 0 110 39t31 119q0 73 -30.5 107t-104.5 34h-10q-6 -55 -6 -90v-209z" />
<glyph unicode="&#xaf;" horiz-adv-x="737" d="M39 1221v149h659l-14 -149h-645z" />
<glyph unicode="&#xb0;" horiz-adv-x="780" d="M61 1059q0 141 88.5 223t239.5 82q152 0 241 -82t89 -223t-89 -223t-241 -82q-151 0 -239.5 82t-88.5 223zM260 1059q0 -78 32.5 -129t98.5 -51q65 0 97 51t32 129t-32 129t-97 51q-66 0 -98.5 -51t-32.5 -129z" />
<glyph unicode="&#xb1;" horiz-adv-x="1230" d="M150 0v186l931 11v-197h-931zM150 614v205h362v332h195l4 -332h370v-194l-368 -4l4 -340h-205v337z" />
<glyph unicode="&#xb2;" horiz-adv-x="763" d="M29 1065q101 90 158 143t109.5 107t76.5 90t37.5 72t13.5 73q0 49 -32.5 80t-82.5 31q-49 0 -110 -33q-11 -37 -11 -53v-57l-118 -9l-9 244q134 49 279 49q155 0 236 -62t81 -177q0 -99 -72.5 -192.5t-287.5 -278.5h156q16 0 42.5 3.5t44.5 6.5l19 4q17 56 21 70l12 55 l117 -8l-13 -279l-45 -26q-124 4 -149 4h-453z" />
<glyph unicode="&#xb3;" horiz-adv-x="686" d="M31 1763q110 39 250 39q153 0 232 -59t79 -176q0 -62 -39 -115t-111 -90q77 -13 132 -74.5t55 -132.5q0 -94 -73 -175.5t-202 -134t-288 -63.5l-31 109q160 15 257 82.5t97 165.5q0 137 -129 137l-82 -6l-18 104q103 19 157 72t54 135q0 96 -101 96q-49 0 -96 -14 q-6 -28 -6 -37l-2 -84l-117 -8z" />
<glyph unicode="&#xb4;" horiz-adv-x="737" d="M109 1276l423 270l97 -155q-250 -116 -287 -134l-137 -100z" />
<glyph unicode="&#xb5;" horiz-adv-x="1210" d="M82 -408q31 226 31 328v746l-11 346h275l43 -39q-21 -267 -21 -369v-219q0 -84 38 -136t114 -52q79 0 139 72t64 196v221l-11 326h275l43 -39q-21 -235 -23 -348v-283q0 -47 0.5 -71t4.5 -48t10 -34.5t18.5 -22.5t29 -20.5t43.5 -21.5q15 -7 23 -11l-39 -144 q-139 15 -171 23q-80 20 -120 86q-13 21 -24 49q-95 -135 -262 -135q-92 0 -152 31v-164l11 -305h-285z" />
<glyph unicode="&#xb6;" horiz-adv-x="1280" d="M55 1026q0 190 128 308t323 118q65 0 127 -8v-768l-84 -80q-135 0 -246.5 50.5t-179.5 150t-68 229.5zM541 -51l176 24l354 -129l-39 -37q-12 0 -56.5 3t-98 4.5t-121.5 1.5q-43 0 -94 -3t-81 -5l-30 -3zM717 -27q18 136 18 177v1294h187q103 0 169 2.5t81 5.5l14 2 l10 -166l-135 -12h-2q-6 -99 -6 -166v-899q0 -45 4.5 -137t8.5 -161l5 -69z" />
<glyph unicode="&#xb7;" horiz-adv-x="497" d="M82 612q0 78 43.5 126t118.5 48t118.5 -46.5t43.5 -127.5q0 -78 -43.5 -125t-118.5 -47t-118.5 47t-43.5 125z" />
<glyph unicode="&#xb8;" horiz-adv-x="737" d="M188 -444l37 100q76 -23 113 -23q41 0 68.5 16t27.5 52q0 63 -86 63l-43 -2l-22 29l22 229h135l-28 -141q93 -2 149.5 -49t56.5 -129q0 -92 -64.5 -137t-168.5 -45q-53 0 -110 11.5t-87 25.5z" />
<glyph unicode="&#xb9;" horiz-adv-x="602" d="M59 1597q166 121 193 144q6 5 22.5 24t29.5 35l13 17l156 -17q-12 -245 -12 -311v-303q0 -85 14 -158l105 -8l-9 -105q-110 7 -272 7l-176 -7l-6 99l121 14q-1 -2 2 21t6.5 53.5t3.5 42.5v409l-137 -45z" />
<glyph unicode="&#xba;" horiz-adv-x="753" d="M39 1245q0 169 87 257.5t251 88.5q162 0 250 -89t88 -257q0 -167 -87.5 -255.5t-250.5 -88.5t-250.5 88.5t-87.5 255.5zM270 1245q0 -123 25 -173t82 -50q56 0 81 50t25 173q0 124 -25 174.5t-81 50.5q-57 0 -82 -50t-25 -175z" />
<glyph unicode="&#xbb;" horiz-adv-x="909" d="M61 113l215 383l-215 383l138 92l313 -475l-313 -476zM418 113l215 383l-215 383l137 92l313 -475l-313 -476z" />
<glyph unicode="&#xbc;" horiz-adv-x="1753" d="M59 1290q166 121 193 144q6 5 22.5 24t29.5 35l13 16l156 -16q-12 -245 -12 -311v-303q0 -85 14 -158l105 -8l-9 -105q-110 6 -272 6l-176 -6l-6 99l121 14q-1 -2 2 21t6.5 53.5t3.5 42.5v409l-137 -45zM322 -8l870 1483l143 -93l-868 -1482zM944 381l500 633l149 -123 q-143 -133 -163 -164l-269 -348h180v121l213 71v-180l134 8v-153h-134v-29q0 -64 15 -108l90 -9l-6 -106q-127 6 -291 6l-160 -6l-6 98l133 17l1 5q0 4 1 12.5t2.5 19.5t3 22.5t2.5 22.5t1.5 20.5t0.5 15.5v19h-284z" />
<glyph unicode="&#xbd;" horiz-adv-x="1853" d="M59 1290q166 121 193 144q6 5 22.5 24t29.5 35l13 16l156 -16q-12 -245 -12 -311v-303q0 -85 14 -158l105 -8l-9 -105q-110 6 -272 6l-176 -6l-6 99l121 14q-1 -2 2 21t6.5 53.5t3.5 42.5v409l-137 -45zM322 -8l870 1483l143 -93l-868 -1482zM1075 143q238 201 325 308.5 t87 199.5q0 55 -32.5 84t-88.5 29q-53 0 -121 -33q-10 -34 -10 -49v-57l-119 -9l-8 244q140 49 289 49q161 0 247.5 -62.5t86.5 -176.5q0 -102 -84 -211t-304 -289h156q16 0 48 3.5t55 6.5l24 4q17 56 21 70l12 55l117 -8l-13 -278l-45 -27q-124 4 -149 4h-473z" />
<glyph unicode="&#xbe;" horiz-adv-x="1714" d="M31 1456q110 39 250 39q153 0 232 -59t79 -176q0 -62 -39 -115t-111 -90q77 -13 132 -74.5t55 -132.5q0 -94 -73 -175.5t-202 -134t-288 -63.5l-31 109q160 15 257 82t97 165q0 138 -129 138l-82 -6l-18 104q103 19 157 72t54 135q0 96 -101 96q-49 0 -96 -14 q-6 -28 -6 -37l-2 -84l-117 -8zM283 -8l870 1483l143 -93l-868 -1482zM905 381l500 633l149 -123q-143 -133 -163 -164l-269 -348h181v121l213 71v-180l133 8v-153h-133v-29q0 -64 14 -108l90 -9l-6 -106q-127 6 -291 6l-160 -6l-6 98l133 17v5q1 4 2.5 12.5t2.5 19.5 t2.5 22.5t3 22.5t2 20.5t0.5 15.5v19h-285z" />
<glyph unicode="&#xbf;" horiz-adv-x="864" d="M20 -55q0 185 118 293t313 114l-7 164l35 33q72 -8 205 -8l6 -6v-267l-63 -69q-53 6 -121 6q-97 0 -154 -75t-57 -187q0 -121 55 -196t164 -75q86 0 137 33q13 47 13 115l-5 74l140 10l24 -303q-178 -80 -329 -80q-222 0 -348 111t-126 313zM422 877q0 74 39.5 118.5 t111.5 44.5q71 0 111.5 -43.5t40.5 -119.5q0 -74 -40 -118t-112 -44t-111.5 44t-39.5 118z" />
<glyph unicode="&#xc0;" d="M2 139l92 15l86 176l387 1114l230 22l409 -1204l47 -110l115 -19l-10 -143q-100 10 -172 10q-108 0 -212.5 -2.5t-155.5 -5.5l-50 -2l-10 149l121 19l-11 106l-28 103h-387l-35 -131l-12 -78l118 -25l-10 -143q-121 10 -217 10q-77 0 -148.5 -2.5t-104.5 -5.5l-32 -2z M362 1688l74 172l486 -213l-76 -131l-152 77zM508 535l278 4l-131 481z" />
<glyph unicode="&#xc1;" d="M2 139l92 15l86 176l387 1114l230 22l409 -1204l47 -110l115 -19l-10 -143q-100 10 -172 10q-108 0 -212.5 -2.5t-155.5 -5.5l-50 -2l-10 149l121 19l-11 106l-28 103h-387l-35 -131l-12 -78l118 -25l-10 -143q-121 10 -217 10q-77 0 -148.5 -2.5t-104.5 -5.5l-32 -2z M444 1626l486 213l74 -172q-293 -82 -332 -94l-152 -78zM508 535l278 4l-131 481z" />
<glyph unicode="&#xc2;" d="M2 139l92 15l86 176l387 1114l230 22l409 -1204l47 -110l115 -19l-10 -143q-100 10 -172 10q-108 0 -212.5 -2.5t-155.5 -5.5l-50 -2l-10 149l121 19l-11 106l-28 103h-387l-35 -131l-12 -78l118 -25l-10 -143q-121 10 -217 10q-77 0 -148.5 -2.5t-104.5 -5.5l-32 -2z M279 1587l405 273l406 -273l-97 -119l-137 101l-172 84l-172 -84l-137 -101zM508 535l278 4l-131 481z" />
<glyph unicode="&#xc3;" d="M2 139l92 15l86 176l387 1114l230 22l409 -1204l47 -110l115 -19l-10 -143q-100 10 -172 10q-108 0 -212.5 -2.5t-155.5 -5.5l-50 -2l-10 149l121 19l-11 106l-28 103h-387l-35 -131l-12 -78l118 -25l-10 -143q-121 10 -217 10q-77 0 -148.5 -2.5t-104.5 -5.5l-32 -2z M322 1593q4 9 11 23.5t27.5 51.5t41.5 65.5t49 51.5t53 23q43 0 189.5 -38.5t189.5 -38.5q22 0 45.5 19.5t35.5 38.5l13 19l100 -57q-4 -8 -10.5 -22t-27 -50t-41 -63t-48.5 -49.5t-53 -22.5q-44 0 -189.5 39t-189.5 39q-22 0 -47 -21.5t-39 -42.5l-14 -22zM508 535l278 4 l-131 481z" />
<glyph unicode="&#xc4;" d="M2 139l92 15l86 176l387 1114l230 22l409 -1204l47 -110l115 -19l-10 -143q-100 10 -172 10q-108 0 -212.5 -2.5t-155.5 -5.5l-50 -2l-10 149l121 19l-11 106l-28 103h-387l-35 -131l-12 -78l118 -25l-10 -143q-121 10 -217 10q-77 0 -148.5 -2.5t-104.5 -5.5l-32 -2z M303 1692q0 65 36.5 104t102.5 39q65 0 101.5 -38t36.5 -105q0 -65 -36 -103.5t-102 -38.5t-102.5 39t-36.5 103zM508 535l278 4l-131 481zM791 1692q0 65 35.5 104t101.5 39q65 0 101 -38t36 -105q0 -65 -35.5 -103.5t-101.5 -38.5t-101.5 38.5t-35.5 103.5z" />
<glyph unicode="&#xc5;" d="M2 139l92 15l86 176l387 1114l230 22l409 -1204l47 -110l115 -19l-10 -143q-100 10 -172 10q-108 0 -212.5 -2.5t-155.5 -5.5l-50 -2l-10 149l121 19l-11 106l-28 103h-387l-35 -131l-12 -78l118 -25l-10 -143q-121 10 -217 10q-77 0 -148.5 -2.5t-104.5 -5.5l-32 -2z M479 1700q0 91 53 143.5t152 52.5t151 -52.5t52 -143.5q0 -90 -52 -142.5t-151 -52.5t-152 52.5t-53 142.5zM508 535l278 4l-131 481zM621 1700q0 -32 15.5 -54t47.5 -22q33 0 49.5 22t16.5 54q0 34 -16.5 56t-49.5 22q-32 0 -47.5 -22t-15.5 -56z" />
<glyph unicode="&#xc6;" horiz-adv-x="1867" d="M2 133l104 19q106 147 123 178l539 946l-131 24l10 154q109 -10 205 -10h678q18 0 76.5 5t107.5 10l49 5l39 -37l15 -329l-148 -11q-12 97 -18 121q-1 4 -4 10.5t-7.5 18t-7.5 18.5q-113 11 -164 11h-342q5 -88 13 -156l45 -291q16 -4 53 -4h166q18 0 40.5 4.5t36.5 9.5 l13 5l18 131l127 -11q-2 -122 -2 -163l6 -261l-131 -12l-18 123q-90 12 -131 12h-115q-25 0 -37 -4l39 -254l41 -217h207q71 0 158 17q38 83 39 88q19 73 24 116l144 -10l-31 -360l-39 -37q-192 8 -233 8h-555q-34 0 -75.5 -2.5t-66.5 -5.5l-24 -2l-11 143l138 25 q0 87 -4 112l-17 107h-444l-80 -141q-2 -3 -6.5 -13.5t-12.5 -30t-14 -34.5l141 -13l-10 -155q-131 10 -301 10q-43 0 -94 -2.5t-81 -5.5l-30 -2zM594 545l324 4l-68 432l-4 16z" />
<glyph unicode="&#xc7;" horiz-adv-x="1304" d="M55 721q0 168 46 306t134 238t225 155t312 55q29 0 56 -1t56.5 -4.5t49.5 -5t52 -8t45.5 -8.5t49 -10.5t43 -10t47.5 -11.5t43 -11l-24 -367l-158 9l-6 124q0 17 -25 84q-135 29 -229 29q-92 0 -160.5 -43t-108.5 -121t-59.5 -177t-19.5 -220t19 -220.5t59 -177.5 t108 -121.5t160 -43.5q116 0 254 30q1 4 10 27.5t16 45t7 28.5l6 96l154 4l16 -352q-84 -20 -128.5 -30.5t-124 -22.5t-149.5 -15l-18 -92q93 -2 150 -49t57 -129q0 -92 -65 -137t-169 -45q-53 0 -109.5 11.5t-86.5 25.5l37 100q76 -23 112 -23q41 0 69 16.5t28 51.5 q0 63 -86 63l-43 -2l-23 29l16 180q-210 14 -356.5 113t-217.5 261t-71 376z" />
<glyph unicode="&#xc8;" horiz-adv-x="1261" d="M92 133l135 25q5 15 12 80.5t7 95.5v715q0 145 -19 227l-133 24l10 154q131 -10 205 -10h549q18 0 76.5 5t107.5 10l50 5l38 -37l15 -319l-148 -10q-12 97 -18 121q-6 26 -21 49q-82 8 -161 8h-226q-8 -148 -8 -166v-293q20 -2 53 -2h115q18 0 40.5 4.5t36.5 9.5l13 5 l19 131l127 -11q-2 -129 -2 -170l6 -260l-131 -12l-19 123q-90 12 -131 12h-63q-50 0 -64 -2v-250q0 -94 6 -217h256q71 0 158 17q28 52 39 88q21 80 25 116l143 -10l-31 -360l-39 -37q-192 8 -233 8h-578l-207 -10zM303 1688l74 172l485 -213l-76 -131l-151 77z" />
<glyph unicode="&#xc9;" horiz-adv-x="1261" d="M92 133l135 25q5 15 12 80.5t7 95.5v715q0 145 -19 227l-133 24l10 154q131 -10 205 -10h549q18 0 76.5 5t107.5 10l50 5l38 -37l15 -319l-148 -10q-12 97 -18 121q-6 26 -21 49q-82 8 -161 8h-226q-8 -148 -8 -166v-293q20 -2 53 -2h115q18 0 40.5 4.5t36.5 9.5l13 5 l19 131l127 -11q-2 -129 -2 -170l6 -260l-131 -12l-19 123q-90 12 -131 12h-63q-50 0 -64 -2v-250q0 -94 6 -217h256q71 0 158 17q28 52 39 88q21 80 25 116l143 -10l-31 -360l-39 -37q-192 8 -233 8h-578l-207 -10zM385 1626l485 213l74 -172q-293 -82 -332 -94l-151 -78z " />
<glyph unicode="&#xca;" horiz-adv-x="1261" d="M92 133l135 25q5 15 12 80.5t7 95.5v715q0 145 -19 227l-133 24l10 154q131 -10 205 -10h549q18 0 76.5 5t107.5 10l50 5l38 -37l15 -319l-148 -10q-12 97 -18 121q-6 26 -21 49q-82 8 -161 8h-226q-8 -148 -8 -166v-293q20 -2 53 -2h115q18 0 40.5 4.5t36.5 9.5l13 5 l19 131l127 -11q-2 -129 -2 -170l6 -260l-131 -12l-19 123q-90 12 -131 12h-63q-50 0 -64 -2v-250q0 -94 6 -217h256q71 0 158 17q28 52 39 88q21 80 25 116l143 -10l-31 -360l-39 -37q-192 8 -233 8h-578l-207 -10zM219 1669l406 273l405 -273l-96 -119l-137 101l-172 84 l-172 -84l-138 -101z" />
<glyph unicode="&#xcb;" horiz-adv-x="1261" d="M92 133l135 25q5 15 12 80.5t7 95.5v715q0 145 -19 227l-133 24l10 154q131 -10 205 -10h549q18 0 76.5 5t107.5 10l50 5l38 -37l15 -319l-148 -10q-12 97 -18 121q-6 26 -21 49q-82 8 -161 8h-226q-8 -148 -8 -166v-293q20 -2 53 -2h115q18 0 40.5 4.5t36.5 9.5l13 5 l19 131l127 -11q-2 -129 -2 -170l6 -260l-131 -12l-19 123q-90 12 -131 12h-63q-50 0 -64 -2v-250q0 -94 6 -217h256q71 0 158 17q28 52 39 88q21 80 25 116l143 -10l-31 -360l-39 -37q-192 8 -233 8h-578l-207 -10zM244 1692q0 65 36.5 104t102.5 39q65 0 101 -38t36 -105 q0 -65 -35.5 -103.5t-101.5 -38.5t-102.5 39t-36.5 103zM731 1692q0 65 35.5 104t101.5 39q65 0 101.5 -38t36.5 -105q0 -65 -36 -103.5t-102 -38.5t-101.5 38.5t-35.5 103.5z" />
<glyph unicode="&#xcc;" horiz-adv-x="829" d="M94 1688l74 172l485 -213l-75 -131l-152 77zM102 133l136 25q0 3 5 42.5t9 77.5t4 56v715q0 79 -18 227l-134 24l11 154q108 -10 204 -10q103 0 202.5 2.5t147.5 5.5l48 2l10 -166l-135 -12q-19 -98 -19 -166v-715q0 -99 19 -237l133 -13l-10 -155q-167 10 -398 10 q-43 0 -94 -2.5t-81 -5.5l-29 -2z" />
<glyph unicode="&#xcd;" horiz-adv-x="829" d="M102 133l136 25q0 3 5 42.5t9 77.5t4 56v715q0 79 -18 227l-134 24l11 154q108 -10 204 -10q103 0 202.5 2.5t147.5 5.5l48 2l10 -166l-135 -12q-19 -98 -19 -166v-715q0 -99 19 -237l133 -13l-10 -155q-167 10 -398 10q-43 0 -94 -2.5t-81 -5.5l-29 -2zM176 1626 l486 213l73 -172q-293 -82 -332 -94l-151 -78z" />
<glyph unicode="&#xce;" horiz-adv-x="829" d="M10 1649l406 272l405 -272l-96 -119l-137 100l-172 84l-172 -84l-138 -100zM102 133l136 25q0 3 5 42.5t9 77.5t4 56v715q0 79 -18 227l-134 24l11 154q108 -10 204 -10q103 0 202.5 2.5t147.5 5.5l48 2l10 -166l-135 -12q-19 -98 -19 -166v-715q0 -99 19 -237l133 -13 l-10 -155q-167 10 -398 10q-43 0 -94 -2.5t-81 -5.5l-29 -2z" />
<glyph unicode="&#xd0;" horiz-adv-x="1400" d="M74 133l135 25q18 135 18 176v325h-141v150h141v240q0 45 -4.5 102t-8.5 91l-5 34l-133 24l10 154q109 -10 205 -10q49 0 213.5 10t214.5 10q175 0 312.5 -54t226.5 -152.5t135.5 -234.5t46.5 -302q0 -163 -46.5 -297t-135.5 -231.5t-226.5 -151t-312.5 -53.5 q-65 0 -217 6t-213 6q-43 0 -94 -2.5t-81 -5.5l-30 -2zM545 395q0 -131 8 -231q69 -6 133 -6q90 0 160.5 29t117.5 79t77.5 122.5t43.5 155.5t13 181q0 121 -22 220.5t-68.5 179.5t-127.5 124.5t-190 44.5q-43 0 -137 -16q-8 -140 -8 -168v-301h200l-10 -150h-190v-264z" />
<glyph unicode="&#xd1;" horiz-adv-x="1642" d="M92 133l135 25q19 109 19 176v715q0 118 -19 227l-133 24l10 154q109 -10 205 -10h209l39 -41q149 -258 180 -303l451 -629v578q0 70 -19 227l-133 24l11 154l204 -10q74 0 159 2.5t133 5.5l48 2l11 -166l-136 -12q-18 -112 -18 -166v-1110h-277l-665 922v-527 q0 -57 18 -237l133 -13l-10 -155q-109 10 -340 10q-43 0 -94 -2.5t-81 -5.5l-30 -2zM479 1593q4 9 11 23.5t28 51.5t42 65.5t49 51.5t53 23q43 0 189 -38.5t189 -38.5q22 0 45.5 19.5t36.5 38.5l13 19l100 -57q-4 -8 -10.5 -22t-27 -50t-41 -63t-48.5 -49.5t-53 -22.5 q-44 0 -189.5 39t-189.5 39q-22 0 -47 -21.5t-39 -42.5l-15 -22z" />
<glyph unicode="&#xd2;" horiz-adv-x="1572" d="M55 721q0 347 199 554.5t532 207.5t532.5 -207.5t199.5 -554.5q0 -346 -199.5 -553t-532.5 -207t-532 207t-199 553zM424 721q0 -286 89 -423.5t273 -137.5q185 0 274 137.5t89 423.5q0 287 -89 425t-274 138t-273.5 -138t-88.5 -425zM463 1688l74 172l485 -213l-76 -131 l-151 77z" />
<glyph unicode="&#xd3;" horiz-adv-x="1572" d="M55 721q0 347 199 554.5t532 207.5t532.5 -207.5t199.5 -554.5q0 -346 -199.5 -553t-532.5 -207t-532 207t-199 553zM424 721q0 -286 89 -423.5t273 -137.5q185 0 274 137.5t89 423.5q0 287 -89 425t-274 138t-273.5 -138t-88.5 -425zM545 1647l485 213l74 -172 q-293 -83 -332 -95l-151 -77z" />
<glyph unicode="&#xd4;" horiz-adv-x="1572" d="M55 721q0 347 199 554.5t532 207.5t532.5 -207.5t199.5 -554.5q0 -346 -199.5 -553t-532.5 -207t-532 207t-199 553zM379 1649l405 272l406 -272l-96 -119l-138 100l-172 84l-172 -84l-137 -100zM424 721q0 -286 89 -423.5t273 -137.5q185 0 274 137.5t89 423.5 q0 287 -89 425t-274 138t-273.5 -138t-88.5 -425z" />
<glyph unicode="&#xd5;" horiz-adv-x="1572" d="M55 721q0 347 199 554.5t532 207.5t532.5 -207.5t199.5 -554.5q0 -346 -199.5 -553t-532.5 -207t-532 207t-199 553zM399 1593q4 9 11 23.5t28 51.5t42 65.5t49 51.5t53 23q43 0 189.5 -38.5t189.5 -38.5q22 0 45.5 19.5t35.5 38.5l13 19l100 -57q-4 -8 -10.5 -22 t-27 -50t-41 -63t-48.5 -49.5t-53 -22.5q-44 0 -189.5 39t-189.5 39q-22 0 -47 -21.5t-39 -42.5l-14 -22zM424 721q0 -286 89 -423.5t273 -137.5q185 0 274 137.5t89 423.5q0 287 -89 425t-274 138t-273.5 -138t-88.5 -425z" />
<glyph unicode="&#xd7;" horiz-adv-x="1138" d="M123 799l139 141l305 -301l297 303l148 -145l-299 -299l303 -297l-146 -148l-301 299l-303 -303l-141 139l301 308z" />
<glyph unicode="&#xd8;" horiz-adv-x="1572" d="M55 721q0 347 199 554.5t532 207.5q166 0 299 -53l152 286l121 -59l-154 -289q151 -96 232.5 -262.5t81.5 -384.5q0 -346 -199.5 -553t-532.5 -207q-161 0 -297 51l-153 -293l-117 60l154 293q-152 96 -235 263t-83 386zM424 721q0 -269 76 -406l481 914q-79 55 -195 55 q-185 0 -273.5 -138t-88.5 -425zM594 211q77 -51 192 -51q185 0 274 137.5t89 423.5q0 260 -74 399z" />
<glyph unicode="&#xd9;" horiz-adv-x="1595" d="M53 1300l10 154q109 -10 205 -10q103 0 205 2.5t153 5.5l50 2l10 -166l-135 -12q-5 -19 -12 -78t-7 -88v-578q0 -144 79 -236.5t220 -92.5q155 0 222 83.5t67 245.5v517q0 87 -18 227l-133 24l10 154q109 -10 205 -10q103 0 190.5 2.5t123.5 5.5l36 2l10 -166l-135 -12 q-5 -24 -11.5 -80.5t-6.5 -85.5v-561q0 -268 -154 -424t-440 -156q-287 0 -439.5 155.5t-152.5 424.5v500q0 135 -19 227zM477 1688l74 172l485 -213l-75 -131l-152 77z" />
<glyph unicode="&#xda;" horiz-adv-x="1595" d="M53 1300l10 154q109 -10 205 -10q103 0 205 2.5t153 5.5l50 2l10 -166l-135 -12q-5 -19 -12 -78t-7 -88v-578q0 -144 79 -236.5t220 -92.5q155 0 222 83.5t67 245.5v517q0 87 -18 227l-133 24l10 154q109 -10 205 -10q103 0 190.5 2.5t123.5 5.5l36 2l10 -166l-135 -12 q-5 -24 -11.5 -80.5t-6.5 -85.5v-561q0 -268 -154 -424t-440 -156q-287 0 -439.5 155.5t-152.5 424.5v500q0 135 -19 227zM559 1626l485 213l74 -172q-293 -82 -332 -94l-151 -78z" />
<glyph unicode="&#xdb;" horiz-adv-x="1595" d="M53 1300l10 154q109 -10 205 -10q103 0 205 2.5t153 5.5l50 2l10 -166l-135 -12q-5 -19 -12 -78t-7 -88v-578q0 -144 79 -236.5t220 -92.5q155 0 222 83.5t67 245.5v517q0 87 -18 227l-133 24l10 154q109 -10 205 -10q103 0 190.5 2.5t123.5 5.5l36 2l10 -166l-135 -12 q-5 -24 -11.5 -80.5t-6.5 -85.5v-561q0 -268 -154 -424t-440 -156q-287 0 -439.5 155.5t-152.5 424.5v500q0 135 -19 227zM393 1649l406 272l405 -272l-96 -119l-137 100l-172 84l-172 -84l-138 -100z" />
<glyph unicode="&#xdc;" horiz-adv-x="1595" d="M53 1300l10 154q109 -10 205 -10q103 0 205 2.5t153 5.5l50 2l10 -166l-135 -12q-5 -19 -12 -78t-7 -88v-578q0 -144 79 -236.5t220 -92.5q155 0 222 83.5t67 245.5v517q0 87 -18 227l-133 24l10 154q109 -10 205 -10q103 0 190.5 2.5t123.5 5.5l36 2l10 -166l-135 -12 q-5 -24 -11.5 -80.5t-6.5 -85.5v-561q0 -268 -154 -424t-440 -156q-287 0 -439.5 155.5t-152.5 424.5v500q0 135 -19 227zM418 1692q0 65 36.5 104t102.5 39q65 0 101 -38t36 -105q0 -65 -35.5 -103.5t-101.5 -38.5t-102.5 39t-36.5 103zM905 1692q0 65 35.5 104t101.5 39 q65 0 101.5 -38t36.5 -105q0 -65 -36 -103.5t-102 -38.5t-101.5 38.5t-35.5 103.5z" />
<glyph unicode="&#xde;" horiz-adv-x="1228" d="M82 133l135 25q0 4 5.5 42.5t9.5 77t4 56.5v715q0 70 -19 227l-133 24l10 154q109 -10 205 -10q103 0 202 2.5t147 5.5l48 2l11 -166l-136 -12q-10 -48 -16 -117q140 8 182 8q219 0 351.5 -115.5t132.5 -318.5q0 -135 -70.5 -235t-185 -149.5t-256.5 -49.5h-152 q0 -3 14 -141l134 -13l-11 -155q-166 10 -397 10q-43 0 -94 -2.5t-81 -5.5l-30 -2zM553 467h35q142 0 222.5 69t80.5 199q0 135 -66 199.5t-207 64.5q-36 0 -65 -2v-530z" />
<glyph unicode="&#xdf;" horiz-adv-x="1269" d="M72 133l114 25q19 157 19 176v524h-117l-6 129q16 5 59.5 18t63.5 21v162q3 389 475 389q440 0 440 -322q0 -80 -30 -146.5t-72 -109.5t-84.5 -79.5t-72.5 -74.5t-30 -77q0 -30 23 -55t60 -44t81.5 -39t89 -47.5t81.5 -62t60 -89t23 -122.5q0 -155 -93 -242t-251 -87 q-58 0 -137 12t-128 24l-50 11l24 338l144 -11v-92l12 -78q76 -45 133 -45q40 0 67 24.5t27 65.5q0 40 -22 72t-58 55t-78.5 44.5t-85.5 48.5t-79 60t-58 86t-22 120q0 76 30.5 137t74 102.5t86.5 81.5t73.5 93t30.5 118q0 80 -58.5 119t-150.5 39q-48 0 -82.5 -13.5 t-55 -36t-31.5 -60.5t-15 -78.5t-4 -98.5v-723q0 -45 4.5 -139t9 -172t4.5 -84h-160q-65 0 -132 -2.5t-102 -5.5l-34 -2z" />
<glyph unicode="&#xe0;" horiz-adv-x="1071" d="M57 270q0 239 271 283l290 47v59q0 100 -35 142.5t-118 42.5q-86 0 -166 -39l-14 -82l2 -88l-154 -6l-31 346q93 23 200.5 39t174.5 16q203 0 315.5 -96.5t112.5 -271.5v-267q0 -45 4.5 -104.5t9.5 -96.5l5 -36l123 -13l-13 -155q-102 10 -377 10l-16 147 q-91 -167 -283 -167q-140 0 -220.5 77.5t-80.5 212.5zM195 1391l96 155l424 -270l-97 -119l-137 100zM360 315q0 -125 111 -125q54 0 93 35t54 97v145l-151 -25q-57 -10 -82 -40t-25 -87z" />
<glyph unicode="&#xe1;" horiz-adv-x="1071" d="M57 270q0 239 271 283l290 47v59q0 100 -35 142.5t-118 42.5q-86 0 -166 -39l-14 -82l2 -88l-154 -6l-31 346q93 23 200.5 39t174.5 16q203 0 315.5 -96.5t112.5 -271.5v-267q0 -45 4.5 -104.5t9.5 -96.5l5 -36l123 -13l-13 -155q-102 10 -377 10l-16 147 q-91 -167 -283 -167q-140 0 -220.5 77.5t-80.5 212.5zM276 1276l424 270l97 -155q-250 -116 -287 -134l-137 -100zM360 315q0 -125 111 -125q54 0 93 35t54 97v145l-151 -25q-57 -10 -82 -40t-25 -87z" />
<glyph unicode="&#xe2;" horiz-adv-x="1071" d="M57 270q0 239 271 283l290 47v59q0 100 -35 142.5t-118 42.5q-86 0 -166 -39l-14 -82l2 -88l-154 -6l-31 346q93 23 200.5 39t174.5 16q203 0 315.5 -96.5t112.5 -271.5v-267q0 -45 4.5 -104.5t9.5 -96.5l5 -36l123 -13l-13 -155q-102 10 -377 10l-16 147 q-91 -167 -283 -167q-140 0 -220.5 77.5t-80.5 212.5zM90 1274l406 293l405 -293l-96 -119l-137 109q-81 41 -172 90l-172 -90l-138 -109zM360 315q0 -125 111 -125q54 0 93 35t54 97v145l-151 -25q-57 -10 -82 -40t-25 -87z" />
<glyph unicode="&#xe3;" horiz-adv-x="1071" d="M57 270q0 239 271 283l290 47v59q0 100 -35 142.5t-118 42.5q-86 0 -166 -39l-14 -82l2 -88l-154 -6l-31 346q93 23 200.5 39t174.5 16q203 0 315.5 -96.5t112.5 -271.5v-267q0 -45 4.5 -104.5t9.5 -96.5l5 -36l123 -13l-13 -155q-102 10 -377 10l-16 147 q-91 -167 -283 -167q-140 0 -220.5 77.5t-80.5 212.5zM150 1266q4 9 11 23.5t27.5 51.5t41.5 65.5t49 51.5t53 23q43 0 169 -39t169 -39q22 0 45.5 19.5t36.5 39.5l12 19l100 -58q-4 -8 -10.5 -22t-27 -49.5t-41 -62.5t-48.5 -49.5t-53 -22.5q-44 0 -169 38.5t-169 38.5 q-22 0 -47 -21.5t-39 -42.5l-14 -22zM360 315q0 -125 111 -125q54 0 93 35t54 97v145l-151 -25q-57 -10 -82 -40t-25 -87z" />
<glyph unicode="&#xe4;" horiz-adv-x="1071" d="M57 270q0 239 271 283l290 47v59q0 100 -35 142.5t-118 42.5q-86 0 -166 -39l-14 -82l2 -88l-154 -6l-31 346q93 23 200.5 39t174.5 16q203 0 315.5 -96.5t112.5 -271.5v-267q0 -45 4.5 -104.5t9.5 -96.5l5 -36l123 -13l-13 -155q-102 10 -377 10l-16 147 q-91 -167 -283 -167q-140 0 -220.5 77.5t-80.5 212.5zM115 1341q0 65 36.5 104.5t102.5 39.5q64 0 100.5 -38t36.5 -106q0 -65 -35.5 -103t-101.5 -38t-102.5 38.5t-36.5 102.5zM360 315q0 -125 111 -125q54 0 93 35t54 97v145l-151 -25q-57 -10 -82 -40t-25 -87zM602 1341 q0 65 35.5 104.5t101.5 39.5q65 0 101.5 -38.5t36.5 -105.5q0 -64 -36 -102.5t-102 -38.5t-101.5 38t-35.5 103z" />
<glyph unicode="&#xe5;" horiz-adv-x="1071" d="M57 270q0 239 271 283l290 47v59q0 100 -35 142.5t-118 42.5q-86 0 -166 -39l-14 -82l2 -88l-154 -6l-31 346q93 23 200.5 39t174.5 16q203 0 315.5 -96.5t112.5 -271.5v-267q0 -45 4.5 -104.5t9.5 -96.5l5 -36l123 -13l-13 -155q-102 10 -377 10l-16 147 q-91 -167 -283 -167q-140 0 -220.5 77.5t-80.5 212.5zM291 1362q0 91 53 144t152 53t150.5 -52.5t51.5 -144.5q0 -90 -51.5 -142.5t-150.5 -52.5t-152 52.5t-53 142.5zM360 315q0 -125 111 -125q54 0 93 35t54 97v145l-151 -25q-57 -10 -82 -40t-25 -87zM432 1362 q0 -32 16 -54t48 -22q33 0 49 22t16 54q0 34 -16 56t-49 22q-32 0 -48 -22.5t-16 -55.5z" />
<glyph unicode="&#xe6;" horiz-adv-x="1488" d="M39 270q0 126 69 198.5t201 84.5l291 29v80q0 104 -38 153t-116 49q-77 0 -172 -45l-6 -80v-100l-153 -6l-31 342q215 55 375 55q191 0 303 -86q118 86 297 86q201 0 314.5 -121.5t113.5 -337.5l-43 -79l-553 -33q9 -158 68.5 -225.5t189.5 -67.5q67 0 129 17t90 33 l29 17l71 -118q-161 -146 -401 -146q-238 0 -360 189q-68 -94 -150 -136t-197 -42q-145 0 -233 79.5t-88 210.5zM342 311q0 -63 27 -92t84 -29q72 0 109.5 47t37.5 136v65l-151 -14q-60 -7 -83.5 -32t-23.5 -81zM893 602l270 19l2 16q0 118 -31.5 174.5t-97.5 56.5 q-134 0 -143 -266z" />
<glyph unicode="&#xe7;" horiz-adv-x="954" d="M51 502q0 246 134.5 387t367.5 141q80 0 170.5 -12t140.5 -24l51 -13l-30 -363l-174 7l2 110q-4 52 -8 80q-27 24 -64 38.5t-70 14.5q-100 0 -147 -88.5t-47 -277.5q0 -334 246 -334q63 0 122.5 16t88.5 32l28 17l72 -118q-147 -131 -334 -144l-18 -92q93 -2 149.5 -49 t56.5 -129q0 -92 -64.5 -137t-168.5 -45q-53 0 -110 11.5t-87 25.5l37 100q76 -23 113 -23q41 0 68.5 16t27.5 52q0 63 -86 63l-43 -2l-22 29l18 184q-206 23 -313 157.5t-107 369.5z" />
<glyph unicode="&#xe8;" horiz-adv-x="1026" d="M51 496q0 254 134 394t360 140q217 0 329.5 -132t98.5 -366l-43 -79h-551q10 -155 71 -221t185 -66q67 0 129 17t90 33l29 17l71 -118q-161 -146 -401 -146q-236 0 -369 138.5t-133 388.5zM233 1391l97 155l424 -270l-97 -119l-137 100zM377 602l272 16q2 13 2 17 q0 233 -129 233q-74 0 -106 -68.5t-39 -197.5z" />
<glyph unicode="&#xe9;" horiz-adv-x="1026" d="M51 496q0 254 134 394t360 140q217 0 329.5 -132t98.5 -366l-43 -79h-551q10 -155 71 -221t185 -66q67 0 129 17t90 33l29 17l71 -118q-161 -146 -401 -146q-236 0 -369 138.5t-133 388.5zM315 1276l424 270l97 -155q-250 -116 -287 -134l-137 -100zM377 602l272 16 q2 13 2 17q0 233 -129 233q-74 0 -106 -68.5t-39 -197.5z" />
<glyph unicode="&#xea;" horiz-adv-x="1026" d="M51 496q0 254 134 394t360 140q217 0 329.5 -132t98.5 -366l-43 -79h-551q10 -155 71 -221t185 -66q67 0 129 17t90 33l29 17l71 -118q-161 -146 -401 -146q-236 0 -369 138.5t-133 388.5zM129 1274l406 293l405 -293l-96 -119l-137 109q-81 41 -172 90l-173 -90 l-137 -109zM377 602l272 16q2 13 2 17q0 233 -129 233q-74 0 -106 -68.5t-39 -197.5z" />
<glyph unicode="&#xeb;" horiz-adv-x="1026" d="M51 496q0 254 134 394t360 140q217 0 329.5 -132t98.5 -366l-43 -79h-551q10 -155 71 -221t185 -66q67 0 129 17t90 33l29 17l71 -118q-161 -146 -401 -146q-236 0 -369 138.5t-133 388.5zM154 1341q0 65 36.5 104.5t102.5 39.5q64 0 100.5 -38t36.5 -106 q0 -65 -35.5 -103t-101.5 -38t-102.5 38.5t-36.5 102.5zM377 602l272 16q2 13 2 17q0 233 -129 233q-74 0 -106 -68.5t-39 -197.5zM641 1341q0 65 35.5 104.5t101.5 39.5q64 0 100.5 -38t36.5 -106q0 -65 -35.5 -103t-101.5 -38t-101.5 38t-35.5 103z" />
<glyph unicode="&#xec;" horiz-adv-x="688" d="M41 879l18 151q154 -18 240 -18l180 4l43 -39q-20 -271 -20 -373v-209q0 -45 4.5 -104.5t9.5 -96.5l4 -36l133 -13l-10 -155q-136 10 -367 10q-43 0 -94 -2.5t-80 -5.5l-30 -2l-11 143l136 25q18 135 18 176v332q0 18 -5 62.5t-10 79.5l-5 36zM43 1391l96 155l424 -270 l-96 -119l-137 100z" />
<glyph unicode="&#xed;" horiz-adv-x="688" d="M41 879l18 151q154 -18 240 -18l180 4l43 -39q-20 -271 -20 -373v-209q0 -45 4.5 -104.5t9.5 -96.5l4 -36l133 -13l-10 -155q-136 10 -367 10q-43 0 -94 -2.5t-80 -5.5l-30 -2l-11 143l136 25q18 135 18 176v332q0 18 -5 62.5t-10 79.5l-5 36zM125 1276l424 270l96 -155 q-250 -116 -287 -134l-137 -100z" />
<glyph unicode="&#xee;" horiz-adv-x="688" d="M-61 1274l405 293l406 -293l-97 -119l-137 109q-81 41 -172 90l-172 -90l-137 -109zM61 879l19 151q153 -18 239 -18l181 4l43 -39q-21 -271 -21 -373v-209q0 -45 5 -104.5t9 -96.5l5 -36l133 -13l-10 -155q-136 10 -367 10q-43 0 -94 -2.5t-81 -5.5l-30 -2l-10 143 l135 25q19 135 19 176v332q0 18 -5 62.5t-11 79.5l-5 36z" />
<glyph unicode="&#xf0;" horiz-adv-x="1056" d="M43 498q0 221 122 356t322 135q105 0 168 -47l-24 -143q-48 12 -82 12q-44 0 -77.5 -20t-52 -50.5t-30 -76t-15 -87.5t-3.5 -94q0 -66 6.5 -117t24 -101.5t55 -78.5t92.5 -28q192 0 192 413q0 412 -147 643l-213 -108l-66 113l195 102q-71 77 -178 135l51 121 q166 -54 301 -168l219 115l66 -117l-185 -94q137 -152 210 -358t73 -439q0 -252 -136 -399.5t-382 -147.5q-243 0 -374.5 140t-131.5 389z" />
<glyph unicode="&#xf1;" horiz-adv-x="1302" d="M35 879l18 151q154 -18 240 -18l98 4l43 -39l21 -148q66 97 147.5 149t192.5 52q167 0 254.5 -93t87.5 -271v-271q0 -45 4.5 -104.5t8.5 -96.5l5 -36l133 -13l-10 -155q-136 10 -367 10q-43 0 -87 -2.5t-66 -5.5l-23 -2l-10 143l115 25q2 29 4.5 71.5t4 69t1.5 35.5v303 q0 84 -38 136t-114 52q-82 0 -142 -75.5t-60 -206.5v-148q0 -45 4.5 -104.5t9.5 -96.5l4 -36l133 -13l-10 -155q-136 10 -367 10q-43 0 -94 -2.5t-80 -5.5l-30 -2l-11 143l135 25q19 135 19 176v332q0 18 -5.5 62.5t-10.5 79.5l-5 36zM328 1266q4 9 11 23.5t27.5 51.5 t41.5 65.5t49 51.5t53 23q43 0 169 -39t169 -39q22 0 45.5 19.5t36.5 39.5l12 19l100 -58q-4 -8 -10.5 -22t-27 -49.5t-41 -62.5t-48.5 -49.5t-53 -22.5q-44 0 -169 38.5t-169 38.5q-22 0 -47 -21.5t-39 -42.5l-14 -22z" />
<glyph unicode="&#xf2;" horiz-adv-x="1114" d="M51 500q0 256 130.5 393t375.5 137t375.5 -137t130.5 -393q0 -255 -131 -393t-375 -138t-375 138t-131 393zM256 1391l96 155l424 -270l-96 -119l-137 100zM377 500q0 -189 42.5 -273t137.5 -84t137.5 84t42.5 273t-42.5 272.5t-137.5 83.5t-137.5 -83.5t-42.5 -272.5z " />
<glyph unicode="&#xf3;" horiz-adv-x="1114" d="M51 500q0 256 130.5 393t375.5 137t375.5 -137t130.5 -393q0 -255 -131 -393t-375 -138t-375 138t-131 393zM338 1276l424 270l96 -155q-250 -116 -287 -134l-137 -100zM377 500q0 -189 42.5 -273t137.5 -84t137.5 84t42.5 273t-42.5 272.5t-137.5 83.5t-137.5 -83.5 t-42.5 -272.5z" />
<glyph unicode="&#xf4;" horiz-adv-x="1114" d="M51 500q0 256 130.5 393t375.5 137t375.5 -137t130.5 -393q0 -255 -131 -393t-375 -138t-375 138t-131 393zM152 1274l405 293l406 -293l-97 -119l-137 109q-81 41 -172 90l-172 -90l-137 -109zM377 500q0 -189 42.5 -273t137.5 -84t137.5 84t42.5 273t-42.5 272.5 t-137.5 83.5t-137.5 -83.5t-42.5 -272.5z" />
<glyph unicode="&#xf5;" horiz-adv-x="1114" d="M51 500q0 256 130.5 393t375.5 137t375.5 -137t130.5 -393q0 -255 -131 -393t-375 -138t-375 138t-131 393zM211 1266q4 9 11 23.5t27.5 51.5t41.5 65.5t49 51.5t53 23q43 0 169 -39t169 -39q22 0 45.5 19.5t35.5 39.5l13 19l101 -58q-4 -8 -10.5 -22t-27.5 -49.5 t-41.5 -62.5t-48.5 -49.5t-53 -22.5q-44 0 -168.5 38.5t-168.5 38.5q-22 0 -47 -21.5t-39 -42.5l-15 -22zM377 500q0 -189 42.5 -273t137.5 -84t137.5 84t42.5 273t-42.5 272.5t-137.5 83.5t-137.5 -83.5t-42.5 -272.5z" />
<glyph unicode="&#xf7;" horiz-adv-x="1210" d="M139 416v215h932v-205zM453 150q0 74 39.5 118.5t111.5 44.5q71 0 111.5 -43.5t40.5 -119.5q0 -74 -40 -118t-112 -44t-111.5 44t-39.5 118zM453 893q0 74 39.5 119t111.5 45q71 0 111.5 -44t40.5 -120q0 -74 -40 -118t-112 -44t-111.5 44t-39.5 118z" />
<glyph unicode="&#xf8;" horiz-adv-x="1089" d="M39 500q0 256 130.5 393t375.5 137q101 0 196 -29l119 224l121 -60l-119 -223q189 -135 189 -442q0 -255 -131 -393t-375 -138q-96 0 -189 27l-104 -199l-117 60l103 192q-199 131 -199 451zM365 500q0 -116 14 -185l266 506q-41 35 -100 35q-95 0 -137.5 -83.5 t-42.5 -272.5zM451 172q36 -29 94 -29q95 0 137.5 84t42.5 273q0 89 -10 164z" />
<glyph unicode="&#xf9;" horiz-adv-x="1273" d="M35 879l18 151q144 -18 230 -18l149 4l43 -39q-20 -271 -20 -373v-219q0 -85 36.5 -136.5t112.5 -51.5q82 0 141.5 75.5t59.5 206.5v187q0 18 -5.5 62.5t-10.5 79.5l-5 36l-153 35l18 151q154 -18 240 -18l180 4l43 -39q-20 -271 -20 -373v-209q0 -45 4.5 -104.5 t9.5 -96.5l4 -36l123 -13l-12 -155q-102 10 -377 10l-19 160q-122 -168 -297 -168q-178 0 -269 92.5t-91 271.5v310q0 18 -5 64t-11 83l-5 37zM315 1391l97 155l424 -270l-97 -119l-137 100z" />
<glyph unicode="&#xfa;" horiz-adv-x="1273" d="M35 879l18 151q144 -18 230 -18l149 4l43 -39q-20 -271 -20 -373v-219q0 -85 36.5 -136.5t112.5 -51.5q82 0 141.5 75.5t59.5 206.5v187q0 18 -5.5 62.5t-10.5 79.5l-5 36l-153 35l18 151q154 -18 240 -18l180 4l43 -39q-20 -271 -20 -373v-209q0 -45 4.5 -104.5 t9.5 -96.5l4 -36l123 -13l-12 -155q-102 10 -377 10l-19 160q-122 -168 -297 -168q-178 0 -269 92.5t-91 271.5v310q0 18 -5 64t-11 83l-5 37zM397 1276l424 270l97 -155q-250 -116 -287 -134l-137 -100z" />
<glyph unicode="&#xfb;" horiz-adv-x="1273" d="M35 879l18 151q144 -18 230 -18l149 4l43 -39q-20 -271 -20 -373v-219q0 -85 36.5 -136.5t112.5 -51.5q82 0 141.5 75.5t59.5 206.5v187q0 18 -5.5 62.5t-10.5 79.5l-5 36l-153 35l18 151q154 -18 240 -18l180 4l43 -39q-20 -271 -20 -373v-209q0 -45 4.5 -104.5 t9.5 -96.5l4 -36l123 -13l-12 -155q-102 10 -377 10l-19 160q-122 -168 -297 -168q-178 0 -269 92.5t-91 271.5v310q0 18 -5 64t-11 83l-5 37zM211 1274l405 293l406 -293l-96 -119l-138 109q-81 41 -172 90l-172 -90l-137 -109z" />
<glyph unicode="&#xfc;" horiz-adv-x="1273" d="M35 879l18 151q144 -18 230 -18l149 4l43 -39q-20 -271 -20 -373v-219q0 -85 36.5 -136.5t112.5 -51.5q82 0 141.5 75.5t59.5 206.5v187q0 18 -5.5 62.5t-10.5 79.5l-5 36l-153 35l18 151q154 -18 240 -18l180 4l43 -39q-20 -271 -20 -373v-209q0 -45 4.5 -104.5 t9.5 -96.5l4 -36l123 -13l-12 -155q-102 10 -377 10l-19 160q-122 -168 -297 -168q-178 0 -269 92.5t-91 271.5v310q0 18 -5 64t-11 83l-5 37zM236 1341q0 65 36.5 104.5t102.5 39.5q64 0 100.5 -38t36.5 -106q0 -65 -35.5 -103t-101.5 -38t-102.5 38.5t-36.5 102.5z M723 1341q0 65 35.5 104.5t101.5 39.5q64 0 100.5 -38t36.5 -106q0 -65 -35.5 -103t-101.5 -38t-101.5 38t-35.5 103z" />
<glyph unicode="&#xfe;" horiz-adv-x="1132" d="M0 1415l18 152q140 -19 240 -19l180 4l43 -39l-20 -276v-350q120 143 291 143q187 0 288 -132.5t101 -377.5q0 -258 -134 -399t-380 -141q-71 0 -166 10v-64q0 -45 5 -107t10 -101l5 -40l162 -12l-10 -145q-136 10 -367 10q-43 0 -94 -2.5t-81 -4.5l-30 -3l-10 133 l103 24q20 146 20 187v1337q0 18 -5 62.5t-10 79.5l-5 36zM461 203q89 -29 141 -29q112 0 162.5 75.5t50.5 244.5q0 157 -42.5 231t-131.5 74q-81 0 -126.5 -68t-53.5 -199v-329z" />
<glyph unicode="&#xff;" horiz-adv-x="1169" d="M8 889l12 141q152 -18 285 -18q40 0 98 2.5t96 5.5l38 2l8 -145l-86 -11q7 -76 28 -137l129 -405l125 409q22 68 25 133l-90 11l12 145q111 -10 244 -10q40 0 96 2.5t92 5.5l35 2l8 -145l-100 -11q-16 -28 -45.5 -94.5t-40.5 -99.5l-447 -1153l-405 26l22 162l113 -4 q50 0 90 12q41 47 64 115l63 170l-254 666q-56 146 -86 200zM205 1341q0 65 36.5 104.5t102.5 39.5q64 0 100.5 -38t36.5 -106q0 -65 -35.5 -103t-101.5 -38t-102.5 38.5t-36.5 102.5zM692 1341q0 65 35.5 104.5t101.5 39.5q65 0 101.5 -38.5t36.5 -105.5q0 -64 -36 -102.5 t-102 -38.5t-101.5 38t-35.5 103z" />
<glyph unicode="&#x152;" horiz-adv-x="2058" d="M55 721q0 347 199 554.5t532 207.5q135 0 238 -33q135 -6 150 -6h548q18 0 76.5 5t107.5 10l50 5l39 -37l14 -319l-147 -10q-11 89 -19 121q-7 28 -20 49q-82 8 -162 8h-225q-1 -10 -3.5 -49t-4 -70.5t-1.5 -46.5v-293q20 -2 54 -2h114q18 0 41 4.5t36 9.5l14 5l18 131 l127 -11q-2 -122 -2 -163l6 -261l-131 -12l-18 123q-91 12 -132 12h-63q-50 0 -64 -2v-256q0 -73 7 -217h256q70 0 157 17q28 52 39 88q21 80 25 116l143 -10l-31 -360l-38 -37q-193 8 -234 8h-577l-148 -6q-106 -33 -240 -33q-333 0 -532 207t-199 553zM424 721 q0 -286 89 -423.5t273 -137.5q74 0 129 16t94.5 50.5t66 74t54.5 100.5v697q-35 46 -51.5 65.5t-49 49t-62 41t-75.5 21t-106 9.5q-185 0 -273.5 -138t-88.5 -425z" />
<glyph unicode="&#x153;" horiz-adv-x="1585" d="M43 500q0 256 130.5 393t375.5 137q198 0 346 -160q112 160 328 160t329 -131.5t99 -366.5l-43 -79h-551q9 -151 69.5 -219t186.5 -68q67 0 129 17t90 33l29 17l71 -118q-161 -146 -401 -146q-229 0 -336 158q-152 -158 -346 -158q-244 0 -375 138t-131 393zM369 500 q0 -189 42.5 -273t137.5 -84t137.5 84t42.5 273t-42.5 272.5t-137.5 83.5t-137.5 -83.5t-42.5 -272.5zM1057 604l270 14q2 13 2 17q0 233 -129 233q-69 0 -103.5 -64.5t-39.5 -199.5z" />
<glyph unicode="&#x178;" horiz-adv-x="1458" d="M-12 1311l10 143q112 -10 188 -10q103 0 209.5 2.5t161.5 5.5l55 2l11 -149l-109 -19q15 -67 35 -106l215 -424l225 452q4 7 6 26.5t2 35.5v16l-90 25l11 143q129 -10 225 -10q76 0 151 2.5t112 5.5l38 2l10 -149l-123 -15q-92 -110 -127 -176l-313 -602v-117 q0 -107 18 -237l133 -13l-10 -155q-166 10 -397 10q-43 0 -94 -2.5t-81 -5.5l-30 -2l-10 143l135 25q0 3 5 42.5t9 77.5t4 56v176l-364 672q-13 22 -37.5 49.5t-42.5 44.5l-18 16zM348 1692q0 65 36.5 104t102.5 39q65 0 101.5 -38t36.5 -105q0 -65 -36 -103.5t-102 -38.5 t-102.5 39t-36.5 103zM836 1692q0 65 35.5 104t101.5 39q65 0 101 -38t36 -105q0 -65 -35.5 -103.5t-101.5 -38.5t-101.5 38.5t-35.5 103.5z" />
<glyph unicode="&#x2c6;" horiz-adv-x="737" d="M-37 1274l406 293l405 -293l-96 -119l-137 109q-81 41 -172 90l-172 -90l-138 -109z" />
<glyph unicode="&#x2dc;" horiz-adv-x="737" d="M10 1266q4 9 11 23.5t28 51.5t42 65.5t49 51.5t53 23q43 0 168.5 -39t168.5 -39q22 0 45.5 19.5t36.5 39.5l13 19l100 -58q-4 -8 -10.5 -22t-27 -49.5t-41 -62.5t-48.5 -49.5t-53 -22.5q-44 0 -169 38.5t-169 38.5q-22 0 -47 -21.5t-40 -42.5l-14 -22z" />
<glyph unicode="&#x2000;" horiz-adv-x="971" />
<glyph unicode="&#x2001;" horiz-adv-x="1942" />
<glyph unicode="&#x2002;" horiz-adv-x="971" />
<glyph unicode="&#x2003;" horiz-adv-x="1942" />
<glyph unicode="&#x2004;" horiz-adv-x="647" />
<glyph unicode="&#x2005;" horiz-adv-x="485" />
<glyph unicode="&#x2006;" horiz-adv-x="323" />
<glyph unicode="&#x2007;" horiz-adv-x="323" />
<glyph unicode="&#x2008;" horiz-adv-x="242" />
<glyph unicode="&#x2009;" horiz-adv-x="388" />
<glyph unicode="&#x200a;" horiz-adv-x="107" />
<glyph unicode="&#x2010;" horiz-adv-x="577" d="M61 616h455l-10 -194h-440z" />
<glyph unicode="&#x2011;" horiz-adv-x="577" d="M61 616h455l-10 -194h-440z" />
<glyph unicode="&#x2012;" horiz-adv-x="577" d="M61 616h455l-10 -194h-440z" />
<glyph unicode="&#x2013;" horiz-adv-x="1032" d="M0 616h1032l-10 -194h-1018z" />
<glyph unicode="&#x2014;" horiz-adv-x="2060" d="M0 616h2060l-10 -194h-2046z" />
<glyph unicode="&#x2018;" horiz-adv-x="468" d="M74 1255q0 55 19.5 109t56 99.5t94 76.5t127.5 37l18 -59q-52 -25 -87.5 -58.5t-47.5 -89.5q64 0 104.5 -41t40.5 -104q0 -70 -46 -121t-115 -51q-79 0 -121.5 58.5t-42.5 143.5z" />
<glyph unicode="&#x2019;" horiz-adv-x="468" d="M70 1405q0 70 46 121t115 51q79 0 121.5 -59t42.5 -144q0 -74 -33 -143t-102.5 -119.5t-161.5 -58.5l-18 59q52 25 87.5 58.5t47.5 89.5q-64 0 -104.5 41t-40.5 104z" />
<glyph unicode="&#x201a;" horiz-adv-x="448" d="M55 78q0 70 46.5 121t115.5 51q79 0 121.5 -59t42.5 -144q0 -74 -33 -143t-102.5 -119.5t-161.5 -58.5l-18 59q53 25 88 58t47 89q-64 0 -105 41.5t-41 104.5z" />
<glyph unicode="&#x201c;" horiz-adv-x="878" d="M74 1255q0 55 19.5 109t56 99.5t94 76.5t127.5 37l18 -59q-52 -25 -87.5 -58.5t-47.5 -89.5q64 0 104.5 -41t40.5 -104q0 -70 -46 -121t-115 -51q-79 0 -121.5 58.5t-42.5 143.5zM483 1255q0 55 19.5 109t56 99.5t94 76.5t127.5 37l19 -59q-52 -25 -87.5 -58.5 t-47.5 -89.5q64 0 104.5 -41t40.5 -104q0 -70 -46.5 -121t-115.5 -51q-79 0 -121.5 58.5t-42.5 143.5z" />
<glyph unicode="&#x201d;" horiz-adv-x="880" d="M70 1395q0 70 46 121t115 51q79 0 121.5 -59t42.5 -144q0 -55 -19.5 -109t-56 -99.5t-94 -76.5t-127.5 -37l-18 60q53 25 88 58t47 89q-64 0 -104.5 41.5t-40.5 104.5zM481 1395q0 70 46.5 121t115.5 51q79 0 121.5 -59t42.5 -144q0 -55 -19.5 -109t-56 -99.5t-94 -76.5 t-127.5 -37l-18 60q53 25 88 58t47 89q-64 0 -105 41.5t-41 104.5z" />
<glyph unicode="&#x201e;" horiz-adv-x="880" d="M70 78q0 70 46 121t115 51q79 0 121.5 -59t42.5 -144q0 -74 -33 -143t-102.5 -119.5t-161.5 -58.5l-18 59q53 25 88 58t47 89q-64 0 -104.5 41.5t-40.5 104.5zM481 78q0 70 46.5 121t115.5 51q79 0 121.5 -59t42.5 -144q0 -74 -33 -143t-102.5 -119.5t-161.5 -58.5 l-18 59q53 25 88 58t47 89q-64 0 -105 41.5t-41 104.5z" />
<glyph unicode="&#x2022;" horiz-adv-x="471" d="M41 518q0 94 51.5 151.5t143.5 57.5q91 0 142.5 -55.5t51.5 -153.5q0 -94 -51 -150.5t-143 -56.5t-143.5 56.5t-51.5 150.5z" />
<glyph unicode="&#x2026;" horiz-adv-x="1296" d="M82 121q0 75 41.5 121.5t114.5 46.5q72 0 113.5 -45t41.5 -123q0 -75 -41 -120.5t-114 -45.5q-74 0 -115 45.5t-41 120.5zM487 121q0 75 41.5 121.5t114.5 46.5q72 0 114 -45t42 -123q0 -75 -41 -120.5t-115 -45.5t-115 45.5t-41 120.5zM893 121q0 75 41.5 121.5 t114.5 46.5q72 0 113.5 -45t41.5 -123q0 -75 -41 -120.5t-114 -45.5q-74 0 -115 45.5t-41 120.5z" />
<glyph unicode="&#x202f;" horiz-adv-x="388" />
<glyph unicode="&#x2039;" horiz-adv-x="552" d="M41 496l313 475l138 -92l-216 -383l216 -383l-138 -93z" />
<glyph unicode="&#x203a;" horiz-adv-x="552" d="M61 113l215 383l-215 383l138 92l313 -475l-313 -476z" />
<glyph unicode="&#x205f;" horiz-adv-x="485" />
<glyph unicode="&#x20ac;" horiz-adv-x="1441" d="M72 805l198 8q38 256 204.5 404.5t445.5 148.5q78 0 161.5 -12t125 -22t134.5 -34l-24 -313l-148 6l-6 92q0 11 -22 80q-126 21 -211 21q-132 0 -209.5 -95.5t-102.5 -259.5l293 13l4 -131l-307 -15v-28q0 -40 2 -58l312 15l4 -131l-303 -15q27 -153 103 -240t202 -87 q110 0 233 22q33 77 33 96l6 90l143 2l17 -325q-83 -21 -137.5 -33t-139.5 -23.5t-163 -11.5q-264 0 -427 131.5t-212 362.5l-195 -8l-4 133l180 8q0 11 -1 34t-1 36v14l-184 -8z" />
<glyph unicode="&#x2122;" horiz-adv-x="1128" d="M6 1315l6 121l13 14q63 -6 77 -6h232l76 6l14 -14l6 -121l-53 -2q0 25 -4 49l-6 10q-12 6 -48 6h-28q-6 -36 -6 -43v-227q0 -58 6 -82l35 -4l-4 -61q-48 4 -138 4l-73 -4l-2 57l38 8l3 26q4 26 4 35v201q0 48 -7 90h-24q-34 0 -55 -6v-10q-7 -42 -7 -49zM444 1016l41 6 l9 33l18 295q0 4 -4 32l-39 9l2 55l61 -6h127l15 -10q16 -70 24 -103l60 -192l65 206l23 89l12 14h94l82 2l2 -55l-39 -9v-32l21 -295l8 -33l39 -4l-2 -57q-45 4 -127 4l-74 -4l-2 55l41 6q2 18 2 53l-6 215l-111 -325h-84l-102 325l-14 -215q0 -5 1 -24t1 -29l41 -4l-2 -57 q-27 4 -113 4l-68 -4z" />
<glyph unicode="&#x25fc;" horiz-adv-x="1034" d="M0 0v1034h1034v-1034h-1034z" />
</font>
</defs>
</svg>
